<svg xmlns="http://www.w3.org/2000/svg" viewBox="0 0 337.29 17.37"><defs><style>.a{fill:#231f20;}</style></defs><path class="a" d="M13.5,17.09H11.1L7.23,10.65a5.09,5.09,0,0,1-.39-.83h0c-.08.18-.21.46-.4.83l-4,6.44H0L5.62,8.64.45.28H2.86L6.29,6.19a10.8,10.8,0,0,1,.6,1.17h.05c.25-.52.47-.92.65-1.22L11.17.28h2.26L8.14,8.61Z"/><path class="a" d="M36,.28,31.23,17.09H28.92L25.46,4.8a8.07,8.07,0,0,1-.26-1.71h-.05a8.68,8.68,0,0,1-.31,1.69L21.36,17.09H19.08L14.16.28h2.16L19.9,13.17a8.4,8.4,0,0,1,.28,1.69h.06a10.39,10.39,0,0,1,.36-1.69L24.32.28H26.2l3.57,13a10.68,10.68,0,0,1,.28,1.57h0a9.25,9.25,0,0,1,.32-1.62L33.84.28Z"/><path class="a" d="M37.3,4.56,46.84.28h.89V17.09h-2V10.35L37.3,6.53Zm8.46,3.83V2.7l-6.3,2.84Z"/><path class="a" d="M59.66,13.24v3.85H57.83V13.24h-.31a6.52,6.52,0,0,1-2.6-.51,6.38,6.38,0,0,1-3.4-3.52A7,7,0,0,1,51,6.61,6.14,6.14,0,0,1,55,.76,6.74,6.74,0,0,1,57.54.28h2.4a7.08,7.08,0,0,1,2.58.47A6.09,6.09,0,0,1,66,4.05a6.49,6.49,0,0,1,.5,2.56A7,7,0,0,1,66,9.19a6.81,6.81,0,0,1-1.35,2.11,6.48,6.48,0,0,1-2.06,1.42,6.34,6.34,0,0,1-2.59.52Zm-1.83-1.73V1.93h-.29a4.54,4.54,0,0,0-1.84.36,4.14,4.14,0,0,0-1.4,1,4.24,4.24,0,0,0-.89,1.48,5.44,5.44,0,0,0-.31,1.87,6.36,6.36,0,0,0,.29,1.94,4.45,4.45,0,0,0,.86,1.54,3.85,3.85,0,0,0,1.38,1,4.65,4.65,0,0,0,1.89.37Zm1.83-9.58v9.58H60a4.56,4.56,0,0,0,1.89-.38,4,4,0,0,0,1.38-1,4.54,4.54,0,0,0,.86-1.54,6.07,6.07,0,0,0,.29-1.94,5.7,5.7,0,0,0-.3-1.88,4.36,4.36,0,0,0-.88-1.49,4,4,0,0,0-1.4-1,4.61,4.61,0,0,0-1.86-.36Z"/><path class="a" d="M71.72,17.09h-2V.28h2V3.81l4.6-2.59h.94l1,4.39,3.91-2.45,1,1.45L77.93,7.88H77L76,3.41l-4.25,2.4Z"/><path class="a" d="M94.25,5.93A5.94,5.94,0,0,0,94,4.25a4.36,4.36,0,0,0-.66-1.31,2.94,2.94,0,0,0-1-.85A2.9,2.9,0,0,0,91,1.78a4.06,4.06,0,0,0-1.13.16,3.85,3.85,0,0,0-1.12.5,4.79,4.79,0,0,0-1,.9,5.81,5.81,0,0,0-.87,1.32L85.18,4a10.15,10.15,0,0,1,1-1.61A6.44,6.44,0,0,1,87.55,1.1,5.86,5.86,0,0,1,89.17.29,6.3,6.3,0,0,1,91.1,0a5.21,5.21,0,0,1,2.12.42,4.59,4.59,0,0,1,1.64,1.19,5.49,5.49,0,0,1,1.08,1.86,7.6,7.6,0,0,1,.38,2.46,8.83,8.83,0,0,1-.43,2.6,12.8,12.8,0,0,1-1.31,2.81,20,20,0,0,1-2.25,3,29.92,29.92,0,0,1-3.22,3.06L88,16A28.89,28.89,0,0,0,91,13,17.05,17.05,0,0,0,93,10.38,9.29,9.29,0,0,0,94,8,8.34,8.34,0,0,0,94.25,5.93Z"/><path class="a" d="M98.52,8.68a8.4,8.4,0,0,1,.31-2.3,9.21,9.21,0,0,1,.87-2.09,8.91,8.91,0,0,1,3.11-3.11,9.33,9.33,0,0,1,2.08-.87A8.52,8.52,0,0,1,107.2,0a8.42,8.42,0,0,1,2.31.31,9.13,9.13,0,0,1,2.08.87,8.62,8.62,0,0,1,1.76,1.36,8.18,8.18,0,0,1,1.35,1.75,8.74,8.74,0,0,1,.88,6.71,8.66,8.66,0,0,1-.88,2.07,8.49,8.49,0,0,1-3.11,3.11,8.73,8.73,0,0,1-2.08.88,8.76,8.76,0,0,1-4.62,0,8.91,8.91,0,0,1-2.08-.88,8.18,8.18,0,0,1-1.75-1.35,8.62,8.62,0,0,1-1.36-1.76A9.13,9.13,0,0,1,98.83,11,8.42,8.42,0,0,1,98.52,8.68Zm2.06,0a7.27,7.27,0,0,0,.5,2.69,6.73,6.73,0,0,0,1.38,2.2,6.64,6.64,0,0,0,7.39,1.48,6.46,6.46,0,0,0,2.09-1.48,6.92,6.92,0,0,0,1.39-2.2,7.26,7.26,0,0,0,.49-2.69A7.3,7.3,0,0,0,113.33,6a6.88,6.88,0,0,0-1.39-2.19,6.62,6.62,0,0,0-7.38-1.48,6.4,6.4,0,0,0-2.1,1.48A6.68,6.68,0,0,0,101.08,6,7.31,7.31,0,0,0,100.58,8.68Z"/><path class="a" d="M131.57,2.06h-5.21V5.39h5.21V7.17h-5.21V10.5h5.21v1.78h-5.21v4.81h-2V12.28h-5.2V10.5h5.2V7.17h-5.2V5.39h5.2V2.06h-5.2V.28h12.38Z"/><path class="a" d="M136.54.28v4.4l5-4.4h1.87V17.09h-2V2.85l-5.31,4.51H134.8V.28Z"/><path class="a" d="M148.34.28V4.8L152.48.28h1.74V4.8L158.37.28h1.88V17.09h-2V2.85l-4,4.51h-1.74V2.78l-4.14,4.58H146.6V.28Z"/><path class="a" d="M164.66.28h2V15l7-2.91.66,1.66-8.66,3.62h-.94Z"/><path class="a" d="M181.27,5.85l-4.83-4.22L177.61.28l4.83,4.23V.28h2V17.09h-2V7.18l-4.9,4.22-1.22-1.3Z"/><path class="a" d="M200.25,17.09h-5V9.66h-7.62V7.88h7.62V2.06h-7.62V.28h9.59v15h3Z"/><path class="a" d="M202.38,8.68a8.7,8.7,0,0,1,1.19-4.39,8.18,8.18,0,0,1,1.35-1.75,8.62,8.62,0,0,1,1.76-1.36,9.13,9.13,0,0,1,2.08-.87A8.42,8.42,0,0,1,211.07,0a8.52,8.52,0,0,1,2.31.31,9.33,9.33,0,0,1,2.08.87,8.91,8.91,0,0,1,3.11,3.11,9.21,9.21,0,0,1,.87,2.09,8.4,8.4,0,0,1,.31,2.3,8.44,8.44,0,0,1-.31,2.32,9.06,9.06,0,0,1-.87,2.07,8.62,8.62,0,0,1-1.36,1.76,8.18,8.18,0,0,1-1.75,1.35,8.74,8.74,0,0,1-6.71.88,8.66,8.66,0,0,1-2.07-.88,8.49,8.49,0,0,1-3.11-3.11,8.62,8.62,0,0,1-1.19-4.39Zm1.78,0a6.86,6.86,0,0,0,1.43,4.22l4.22-4.22-4.22-4.2a6.87,6.87,0,0,0-1.05,1.94A6.79,6.79,0,0,0,204.16,8.68Zm6.91-6.9a6.82,6.82,0,0,0-2.28.38,7.41,7.41,0,0,0-1.94,1l4.22,4.22,4.2-4.22a7.41,7.41,0,0,0-1.94-1A6.79,6.79,0,0,0,211.07,1.78Zm0,13.81a6.79,6.79,0,0,0,2.26-.38,6.87,6.87,0,0,0,1.94-1.05l-4.2-4.22-4.22,4.22a6.86,6.86,0,0,0,4.22,1.43ZM218,8.68a6.79,6.79,0,0,0-.38-2.26,7.41,7.41,0,0,0-1.05-1.94l-4.22,4.2,4.22,4.22A7.41,7.41,0,0,0,217.59,11,6.82,6.82,0,0,0,218,8.68Z"/><path class="a" d="M225,17.09h-2V.28h2V2.39h8.45V.28h2V17.09h-2V15H225Zm8.45-12.92H225V7.79h8.45Zm-8.45,9h8.45V9.57H225Z"/><path class="a" d="M251.05,17.09H238.68V15.3h5.2V2.06h-5.2V.28h12.37V2.06h-5.2V15.3h5.2Z"/><path class="a" d="M265.21.28l-5.55,10.6v6.21h-2V10.92L252.29.28h2.24l3.76,7.6c0,.09.19.43.41,1h0a5.9,5.9,0,0,1,.44-1l3.94-7.6Z"/><path class="a" d="M276,17.09h-2V12.28h-7.62V10.5H274V7.17h-7.62V5.39H274V2.06h-7.62V.28H276Z"/><path class="a" d="M286.65.28l6.1,16.81h-2.2L289.84,15l-10.77,2.29-.69-.56L284.48.28Zm-5.53,14.77,8.13-1.73L285.52,2.65Z"/><path class="a" d="M303.59,17.09h-2V2.37l-7,2.9L294,3.62,302.65,0h.94Z"/><path class="a" d="M306.82,4.56,316.36.28h.89V17.09h-9V15.3h7v-5l-8.46-3.82Zm8.46,3.83V2.7L309,5.54Z"/><path class="a" d="M329.47,17.09h-2V12.3l-7-2.6V7.54l7-2.55V.28h2v4l7.82-2.84V3.63l-7.82,2.73V11l7.82,2.78v2.13L329.47,13Zm-2-6.78V7.05l-4.6,1.61Z"/></svg>