<svg xmlns="http://www.w3.org/2000/svg" viewBox="0 0 345.67 20.38"><defs><style>.a{fill:#231f20;}</style></defs><path class="a" d="M5.76,17.09,3.58,16.8c.09-1.42.23-2.75.4-4s.4-2.42.65-3.59L2.14,9.5,0,9.79.14,7.85q1-.15,2.28-.3c.87-.11,1.76-.2,2.69-.28.26-1,.54-1.94.85-2.94s.66-2.06,1-3.18l2,.6c-.32,1-.61,2-.88,2.81S7.66,6.27,7.44,7.1c1-.08,2-.14,3-.19L13,6.79l-.15,1.92q-1.14,0-2.7.12l-3.22.22c-.26,1.12-.48,2.32-.68,3.6S5.9,15.41,5.76,17.09Z"/><path class="a" d="M27.36,12.6a1.46,1.46,0,0,1-.61-.13.93.93,0,0,1-.45-.4,11.23,11.23,0,0,1-.68-1.65C25.39,9.73,25.16,9,25,8.21s-.41-1.54-.57-2.27-.27-1.34-.33-1.84a5,5,0,0,0-.75,1.1c-.27.5-.53,1-.79,1.62l-.66,1.53a7.08,7.08,0,0,1-.37.82,2,2,0,0,1-.53.62,1.3,1.3,0,0,1-.81.24,2.65,2.65,0,0,1-.68-.09,1.21,1.21,0,0,1-.6-.48,11.48,11.48,0,0,1-.94-1.86q-.45-1.09-.81-2.28c-.24-.8-.45-1.56-.62-2.28s-.32-1.34-.43-1.84l2-.6.41,1.58c.16.63.33,1.27.52,1.94s.39,1.28.59,1.86a9.63,9.63,0,0,0,.57,1.36c.35-.84.73-1.69,1.14-2.54s.81-1.63,1.21-2.34A14.44,14.44,0,0,1,23.6.74c.35-.43.63-.64.86-.64a.89.89,0,0,1,.74.3,1.87,1.87,0,0,1,.34.78c.08.4.18.94.32,1.64s.29,1.45.46,2.27.35,1.61.55,2.37a19.78,19.78,0,0,0,.59,2,15.77,15.77,0,0,0,.94-2.22c.3-.86.57-1.71.81-2.57s.43-1.6.57-2.22L31.87,3a16.85,16.85,0,0,1-.44,1.72c-.2.66-.43,1.36-.67,2.09S30.25,8.26,30,8.94s-.53,1.28-.77,1.81a7.87,7.87,0,0,1-.63,1.18,1.52,1.52,0,0,1-.58.54A1.56,1.56,0,0,1,27.36,12.6Z"/><path class="a" d="M45.94,20.38c-.34-.88-.73-1.94-1.18-3.16s-.9-2.54-1.36-4S42.51,10.42,42.1,9a13.47,13.47,0,0,1-2.45.19c-.64,0-1.27,0-1.9-.07a13.56,13.56,0,0,1-2.24-.37c-.63-.17-.95-.44-.95-.81A3.91,3.91,0,0,1,35,6.3a12.16,12.16,0,0,1,1.26-2A16.34,16.34,0,0,1,38,2.38,10.13,10.13,0,0,1,39.79.94,3.06,3.06,0,0,1,41.35.38a1,1,0,0,1,.71.23,2.62,2.62,0,0,1,.42,1.14c.29,1.31.64,2.76,1,4.35s.86,3.19,1.35,4.82,1,3.2,1.52,4.7,1.06,2.84,1.59,4ZM39.43,7.25a13.1,13.1,0,0,0,2.14-.15c-.19-.78-.37-1.54-.53-2.28s-.3-1.44-.41-2.11a4.28,4.28,0,0,0-.71.52c-.32.28-.69.62-1.09,1A14.09,14.09,0,0,0,37.7,5.54a6.63,6.63,0,0,0-.81,1.37l0,.12a8.16,8.16,0,0,0,1.18.17C38.55,7.23,39,7.25,39.43,7.25Z"/><path class="a" d="M54.29,17.71c0-.57-.07-1.21-.1-1.89s0-1.35,0-2c0-.34,0-.69,0-1s0-.72,0-1.09A5.89,5.89,0,0,1,50.73,10a5.28,5.28,0,0,1-1.34-3.8A4.81,4.81,0,0,1,50,3.76a6,6,0,0,1,1.63-1.85A7.67,7.67,0,0,1,53.93.72,8.45,8.45,0,0,1,56.52.31,6.84,6.84,0,0,1,59.68,1a5.77,5.77,0,0,1,2.23,2,5.43,5.43,0,0,1,.82,3A5.27,5.27,0,0,1,61.93,9a5.4,5.4,0,0,1-2.23,1.93,9.2,9.2,0,0,1-3.3.84c0,.34,0,.66,0,1s0,.64,0,1c0,.63,0,1.3,0,2s.06,1.38.1,2Zm0-7.92c.13-1.36.3-2.7.5-4s.4-2.47.61-3.47a5.48,5.48,0,0,0-1.88.7,4.29,4.29,0,0,0-1.43,1.38,3.6,3.6,0,0,0-.55,2,3.32,3.32,0,0,0,.75,2.32A3.61,3.61,0,0,0,54.33,9.79Zm2.19.05a6.35,6.35,0,0,0,1.94-.54A3.81,3.81,0,0,0,60,8.11a3.13,3.13,0,0,0,.58-1.92,3.89,3.89,0,0,0-.82-2.52A3.79,3.79,0,0,0,57.6,2.35c-.18.93-.37,2.06-.58,3.4S56.65,8.45,56.52,9.84Z"/><path class="a" d="M73.22,17.81q-2.32-4-4.44-8.25A72.65,72.65,0,0,1,65.09.7L67.18,0c.24.72.5,1.45.78,2.18s.58,1.48.9,2.24a9.44,9.44,0,0,1,1.46-1.65A9.63,9.63,0,0,1,72,1.54a3.13,3.13,0,0,1,1.48-.48,1.06,1.06,0,0,1,.8.32,3.36,3.36,0,0,1,.57.76c.16.28.29.53.4.74L76,4.3c.23.43.51.64.84.64a1.32,1.32,0,0,0,.93-.49,7.57,7.57,0,0,0,.92-1.23,12.21,12.21,0,0,0,.79-1.52l1.75.8A14.16,14.16,0,0,1,79,5.84a3.22,3.22,0,0,1-2.34,1.1,2.14,2.14,0,0,1-1.16-.39,2.94,2.94,0,0,1-1-1.1L73.15,3.12a9.07,9.07,0,0,0-2,1.57,17,17,0,0,0-1.44,1.77c.74,1.61,1.54,3.26,2.4,4.93s1.79,3.34,2.76,5Z"/><path class="a" d="M89.81,18l-2.07-.62c.39-.84.8-1.78,1.25-2.82s.87-2.15,1.27-3.29a28.39,28.39,0,0,0,1-3.42,14.94,14.94,0,0,0,.38-3.19,2.45,2.45,0,0,0-.39-1.46,2,2,0,0,0-1-.76,3,3,0,0,0-1.17-.23,3.41,3.41,0,0,0-1.73.39,3,3,0,0,0-1,1,5.66,5.66,0,0,0-.56,1.29l-2.14-.39a6.2,6.2,0,0,1,1.9-3A5.75,5.75,0,0,1,89.33.31a6.53,6.53,0,0,1,1.61.21,4,4,0,0,1,1.47.7A3.66,3.66,0,0,1,93.48,2.6a5.27,5.27,0,0,1,.41,2.2,15.21,15.21,0,0,1-.34,3,31.15,31.15,0,0,1-.91,3.38c-.39,1.17-.82,2.34-1.31,3.5S90.33,16.94,89.81,18Z"/><path class="a" d="M103.94,12.19a7.37,7.37,0,0,1-3.55-.77,5.1,5.1,0,0,1-2.16-2.1,6.25,6.25,0,0,1-.72-3,5.36,5.36,0,0,1,.9-3,6.22,6.22,0,0,1,2.53-2.14,8.83,8.83,0,0,1,3.84-.79,7.37,7.37,0,0,1,3,.55,5.68,5.68,0,0,1,3.11,3.35,6.08,6.08,0,0,1,.35,1.93,6.08,6.08,0,0,1-.39,2.1,5.43,5.43,0,0,1-1.23,2,6.1,6.1,0,0,1-2.24,1.44A9.59,9.59,0,0,1,103.94,12.19Zm.17-1.92A5.86,5.86,0,0,0,107,9.68a3.61,3.61,0,0,0,1.54-1.53,4.38,4.38,0,0,0,.48-2,3.75,3.75,0,0,0-.49-1.83A4.07,4.07,0,0,0,107,2.81a4.32,4.32,0,0,0-2.33-.6,6.07,6.07,0,0,0-2.75.55,3.89,3.89,0,0,0-1.63,1.46,3.82,3.82,0,0,0-.54,2,4.24,4.24,0,0,0,1,2.92A4.22,4.22,0,0,0,104.11,10.27Z"/><path class="a" d="M122.69,17.83l-2.26-.21c0-1.09,0-2.19-.1-3.29s-.14-2.19-.24-3.24c-.73.06-1.46.14-2.18.24l-2.14.29.2-1.95,1.94-.26,2-.22c-.05-.41-.1-.82-.15-1.21s-.11-.78-.16-1.16c-1.55.19-3,.4-4.44.64l.14-1.94c1.32-.22,2.64-.42,4-.58-.07-.41-.14-.81-.23-1.18s-.17-.74-.25-1.07c-.79.08-1.53.17-2.22.26s-1.3.2-1.81.31L115,1.32c1.66-.24,3.39-.45,5.17-.62s3.6-.28,5.44-.29l-.19,1.92-2,0c-.71,0-1.45.07-2.2.14.08.32.16.66.24,1s.15.76.21,1.17c1.39-.12,2.81-.22,4.25-.28l-.14,1.92c-.6,0-1.22,0-1.86.08s-1.3.09-2,.16c0,.38.1.78.14,1.18L122.16,9c1.44-.13,2.9-.2,4.39-.22l-.19,1.92c-.64,0-1.3,0-2,.05l-2,.12c.11,1.2.19,2.4.24,3.59S122.67,16.78,122.69,17.83Z"/><path class="a" d="M133.1,18.14l-1.75-1.22a26.86,26.86,0,0,0,1.61-2.4c.56-.93,1.1-1.94,1.63-3A28.5,28.5,0,0,0,136,8.1a17.59,17.59,0,0,0,.8-3.42L133.89,7a2.71,2.71,0,0,1-.78.43,2.17,2.17,0,0,1-.73.14,1,1,0,0,1-.8-.32,2.17,2.17,0,0,1-.4-.64l-2.06-5.28L131,.41l2,4.8,3.1-2.52a5,5,0,0,1,.78-.54,1.69,1.69,0,0,1,.85-.23,1.5,1.5,0,0,1,1,.38,1.19,1.19,0,0,1,.42.89,14.36,14.36,0,0,1-.5,3.58,29.52,29.52,0,0,1-1.37,4,34.66,34.66,0,0,1-2,4A30,30,0,0,1,133.1,18.14Z"/><path class="a" d="M147.43,19l-1.32-1.49A27.68,27.68,0,0,0,148.63,15c.83-1,1.63-2,2.39-3s1.44-2.09,2-3.12a24.76,24.76,0,0,0,1.5-2.93,9.49,9.49,0,0,0,.73-2.44l-1.51,1.44A12.84,12.84,0,0,1,152.53,6a2.39,2.39,0,0,1-1.5.51,1.33,1.33,0,0,1-.78-.21,4,4,0,0,1-.78-.78L148.29,4.1l-1.89,2a1.72,1.72,0,0,1-1.3.67,1.29,1.29,0,0,1-.72-.24,1.84,1.84,0,0,1-.62-.79l-2.23-4.44L143.37.26l2.07,4.08,2-2.35a1.85,1.85,0,0,1,.56-.51,1,1,0,0,1,.47-.11.8.8,0,0,1,.54.2,5.1,5.1,0,0,1,.45.47l1.82,2.3,3.26-3a2.17,2.17,0,0,1,.71-.51A2.24,2.24,0,0,1,156,.72a1.85,1.85,0,0,1,.63.14,1.42,1.42,0,0,1,.62.53,1.94,1.94,0,0,1,.27,1.11,10.58,10.58,0,0,1-.64,3.43,22.62,22.62,0,0,1-1.69,3.68,33.55,33.55,0,0,1-2.38,3.61,40.63,40.63,0,0,1-2.7,3.24A29.79,29.79,0,0,1,147.43,19Z"/><path class="a" d="M161.76,17.88a2.81,2.81,0,0,1-.73-.11,1.63,1.63,0,0,1-.69-.36.86.86,0,0,1-.29-.68,2.84,2.84,0,0,1,.2-.91c.12-.37.24-.76.36-1.16a22.34,22.34,0,0,1,.82-2.24c.41-1,.9-2.1,1.48-3.36s1.2-2.56,1.86-3.92,1.33-2.67,2-3.92l1.92.92c-.19.33-.46.86-.82,1.57s-.77,1.53-1.22,2.46-.9,1.88-1.38,2.87S164.36,11,164,11.89s-.75,1.73-1,2.43a8.86,8.86,0,0,0-.51,1.54c1.16-.08,2.37-.22,3.61-.43A34.72,34.72,0,0,0,170,14.5l.4,1.94a25.84,25.84,0,0,1-3,.8,29.68,29.68,0,0,1-3,.48A22.77,22.77,0,0,1,161.76,17.88Z"/><path class="a" d="M180,18l-2-.7c.2-1,.47-2.19.82-3.45s.74-2.57,1.18-3.91c-1.08.36-2.13.76-3.17,1.2s-2.08.88-3.12,1.34L173,10.7c1.29-.57,2.58-1.12,3.87-1.63s2.57-1,3.83-1.39c-.69-.69-1.44-1.39-2.26-2.11s-1.64-1.41-2.48-2.07a29.39,29.39,0,0,0-2.41-1.7L174.81.34c.77.48,1.56,1,2.36,1.6s1.56,1.2,2.29,1.82,1.38,1.21,1.95,1.78l1-2.71,1-2.49,2,.67c-1.07,2.8-2.07,5.61-3,8.45S180.66,15.14,180,18Z"/><path class="a" d="M191.23,15.34a1.11,1.11,0,0,1-1.18-1,18.65,18.65,0,0,1,.57-2.31c.29-1,.64-2.12,1-3.33a31.93,31.93,0,0,0-4.25,1.08l.24-1.88a26.84,26.84,0,0,1,4.71-1.22c.27-.72.54-1.44.8-2.16s.53-1.4.81-2l-6.65,1.42.14-2.12,7.2-1.48a2.7,2.7,0,0,1,.39-.08l.36,0a1.37,1.37,0,0,1,.8.24,1.07,1.07,0,0,1,.35.94,2.66,2.66,0,0,1-.22,1c-.78,1.95-1.5,3.8-2.15,5.53S193,11.37,192.55,13c.72-.22,1.39-.41,2-.56s1.26-.29,1.9-.41,1.38-.24,2.18-.35l.43,1.9c-.79.08-1.53.19-2.23.33s-1.44.32-2.19.53l-2.57.72A3,3,0,0,1,191.23,15.34Z"/><path class="a" d="M210.77,18a8.46,8.46,0,0,1-4.66-1.21,7.67,7.67,0,0,1-2.88-3.41,12.42,12.42,0,0,1-1-5.15A9.74,9.74,0,0,1,203.07,4a6.16,6.16,0,0,1,2.48-2.74,7.87,7.87,0,0,1,4-1,8.45,8.45,0,0,1,4.79,1.27,7.83,7.83,0,0,1,2.82,3.48,12.87,12.87,0,0,1,.93,5,10,10,0,0,1-.79,4.14A6,6,0,0,1,214.92,17,8,8,0,0,1,210.77,18Zm-.12-1.89a4.78,4.78,0,0,0,4-1.6,6.92,6.92,0,0,0,1.27-4.4A11.88,11.88,0,0,0,215.23,6a5.73,5.73,0,0,0-2-2.78,5.82,5.82,0,0,0-3.5-1,4.74,4.74,0,0,0-3.94,1.58,7,7,0,0,0-1.24,4.42,11.79,11.79,0,0,0,.64,4,5.87,5.87,0,0,0,2,2.79A5.67,5.67,0,0,0,210.65,16.06Zm-1.47-2.52c0-.58,0-1.15,0-1.72s0-1.13-.07-1.69c-.74,0-1.55.07-2.43.07h-.93l-.12-1.9h.86c.9,0,1.74,0,2.52-.07,0-.57-.05-1.15-.1-1.73s-.1-1.16-.16-1.75l2.11-.29L211,6.24c0,.59.1,1.19.13,1.8.62-.08,1.22-.16,1.78-.25s1.08-.18,1.58-.28l.22,1.85c-1.16.26-2.31.46-3.46.6,0,1.12.07,2.25.07,3.38Z"/><path class="a" d="M231.21,17.83v-3l-7.6,2a2.44,2.44,0,0,1-.56.07c-.48,0-.72-.31-.72-.94,0-2.72-.1-5.28-.32-7.68s-.41-4.7-.59-6.91L223.61,1c0,.35.06.72.1,1.11s.08.81.11,1.24l7.87-2,.18,0H232a.61.61,0,0,1,.65.62c0,.34.13,1.12.25,2.33s.24,2.91.35,5.08.17,4.87.19,8.12ZM224.3,9l6.6-1.68c-.05-.69-.09-1.33-.14-1.93s-.1-1.17-.15-1.72L224,5.3q.08.83.15,1.74C224.21,7.66,224.25,8.3,224.3,9Zm.22,5.57,6.67-1.7c-.05-1.35-.1-2.55-.14-3.6L224.4,10.9c0,.57,0,1.16.07,1.76S224.5,13.88,224.52,14.52Z"/><path class="a" d="M242.81,18a1.21,1.21,0,0,1-.68-.2,1.4,1.4,0,0,1-.48-.69,5.83,5.83,0,0,1-.13-1c0-.52-.07-1.15-.09-1.88s-.05-1.47-.06-2.22,0-1.42,0-2c0-.26,0-.69,0-1.31s.05-1.31.08-2.09.08-1.53.13-2.27.12-1.34.18-1.82l-5,1.34.1-1.94L241.89.48a6.12,6.12,0,0,1,.88-.19,5.09,5.09,0,0,1,.71-.07.49.49,0,0,1,.49.26,1.35,1.35,0,0,1,.13.62c0,.31,0,.78-.07,1.43s-.11,1.39-.18,2.23-.13,1.71-.18,2.61-.07,1.74-.07,2.54c0,1.3,0,2.48,0,3.54a17.76,17.76,0,0,0,.15,2.32l4.92-1.23.36,1.83-3.77,1.08-.82.21c-.33.08-.66.16-1,.22A4.38,4.38,0,0,1,242.81,18Z"/><path class="a" d="M261.93,17.9A9.37,9.37,0,0,1,260,15.05a17.33,17.33,0,0,1-1.21-3.81,19.23,19.23,0,0,1-.43-4V6.73a5.4,5.4,0,0,1,0-.56,8.34,8.34,0,0,1-1.53.54,7.65,7.65,0,0,1-1.76.2,4,4,0,0,1-3-1.08,3.59,3.59,0,0,1-1.09-2.66,4.82,4.82,0,0,1,.2-1.33,6.2,6.2,0,0,1,.57-1.38l2,.88a2.58,2.58,0,0,0-.36.8,3.23,3.23,0,0,0-.14,1,2.13,2.13,0,0,0,.42,1.31,1.65,1.65,0,0,0,1.45.59,4.53,4.53,0,0,0,3.12-1.22A9.26,9.26,0,0,0,260.61.29l1.87,1.15a18,18,0,0,0-1.1,2.21,9.21,9.21,0,0,0-.54,1.77,9.38,9.38,0,0,0-.16,1.68,17,17,0,0,0,.39,3.72,14.93,14.93,0,0,0,1,3.15,9.4,9.4,0,0,0,1.42,2.28Z"/><path class="a" d="M279.24,18c-.21-.94-.44-1.89-.69-2.84s-.51-1.9-.78-2.82a46.6,46.6,0,0,1-6.28,4.22l-.92-1.68a40.46,40.46,0,0,0,3.69-2.27,34.2,34.2,0,0,0,2.91-2.24c-.16-.53-.32-1-.48-1.55s-.32-1-.5-1.43c-1,.71-2,1.41-3.1,2.1s-2.22,1.39-3.41,2.08l-.91-1.68c1.23-.71,2.41-1.42,3.53-2.15s2.19-1.46,3.22-2.2c-.23-.6-.45-1.14-.68-1.62s-.43-.87-.62-1.21c-1.17.71-2.28,1.42-3.34,2.14S268.8,6.3,267.81,7l-1-1.58c.58-.43,1.09-.82,1.54-1.17s.89-.67,1.33-1l1.42-1,1.79-1.24a2.88,2.88,0,0,1,1.63-.6,1.3,1.3,0,0,1,.83.22,1.78,1.78,0,0,1,.44.57Q277.1,4,278,6.56t1.68,5.22q.73,2.64,1.44,5.57Z"/><path class="a" d="M295.12,15.14c-.2-.7-.45-1.48-.74-2.32s-.61-1.72-1-2.6c-.5.13-1.11.26-1.85.38s-1.51.21-2.33.28-1.6.11-2.35.11a8.91,8.91,0,0,1-2.27-.23c-.58-.15-.87-.42-.87-.8a5.47,5.47,0,0,1,.35-1.81,14.7,14.7,0,0,1,.9-2.08c.36-.7.75-1.37,1.16-2s.78-1.2,1.13-1.67a7.84,7.84,0,0,1,.78-1A5.82,5.82,0,0,1,288.9.7a1.61,1.61,0,0,1,.94-.24,1.12,1.12,0,0,1,.81.32,5.33,5.33,0,0,1,.63.71,17.81,17.81,0,0,1,1.16,1.83c.43.78.87,1.65,1.33,2.62s.9,2,1.33,3,.82,2,1.18,3,.64,1.84.86,2.6Zm-7.68-6a20.05,20.05,0,0,0,2.48-.18q1.41-.18,2.76-.42c-.52-1.19-1-2.3-1.59-3.33a18.16,18.16,0,0,0-1.51-2.46A20.65,20.65,0,0,0,288,5c-.48.81-.88,1.56-1.21,2.26a7.51,7.51,0,0,0-.61,1.64l0,.12a4,4,0,0,0,.54.07Q287.08,9.1,287.44,9.1Z"/><path class="a" d="M307.6,17.71c0-1.57-.11-3.06-.25-4.49s-.31-2.77-.51-4.05c-.12-.74-.24-1.48-.38-2.23s-.27-1.46-.42-2.13a11,11,0,0,0-.48-1.69c-.92.69-1.84,1.42-2.73,2.2a24.78,24.78,0,0,0-2.76,2.82l-1.39-1.42a30,30,0,0,1,3-3.2A29.53,29.53,0,0,1,305.13.84a2.29,2.29,0,0,1,.55-.3,1.85,1.85,0,0,1,.63-.11,1,1,0,0,1,.71.24,1.74,1.74,0,0,1,.34.55,19.07,19.07,0,0,1,1,3.38c.27,1.3.51,2.61.72,3.92s.41,2.72.55,4.14.22,2.93.24,4.55Z"/><path class="a" d="M316.77,18l-.89-1.76a14.18,14.18,0,0,0,2-.86c.67-.35,1.32-.71,2-1.08.37-.22.76-.49,1.18-.8a5.66,5.66,0,0,0,1.07-1.06,2,2,0,0,0,.44-1.24,8.27,8.27,0,0,0-.08-1c-.06-.38-.13-.81-.23-1.29q-2.61.18-4.74.24c-1.42,0-2.51,0-3.28,0-.46,0-.75-.12-.87-.38a1.69,1.69,0,0,1-.18-.7,1.58,1.58,0,0,1,.24-.81,4.34,4.34,0,0,1,.6-.79l2.48-2.64a33.87,33.87,0,0,1,2.44-2.38c.3-.27.58-.5.84-.7a1.68,1.68,0,0,1,1-.28,1.39,1.39,0,0,1,1,.3,2.08,2.08,0,0,1,.46.7c.15.37.32.86.52,1.46s.4,1.26.61,2,.41,1.44.61,2.17.38,1.4.52,2c.06.25.13.59.2,1a6.54,6.54,0,0,1,.11,1.23,2.76,2.76,0,0,1-.38,1.38,6.28,6.28,0,0,1-1,1.25A12.12,12.12,0,0,1,322.23,15c-.42.31-.81.58-1.16.8-.64.4-1.31.77-2,1.12S317.6,17.64,316.77,18Zm-.86-10.73h.57c.77,0,1.62,0,2.56-.06s1.84-.09,2.72-.16c-.2-.73-.42-1.46-.63-2.18s-.45-1.43-.69-2.14a19.71,19.71,0,0,0-1.75,1.45q-.88.84-1.62,1.62c-.49.53-.89,1-1.21,1.37Z"/><path class="a" d="M338,18c-.18-1-.36-1.88-.55-2.77s-.4-1.75-.63-2.58c-1.5,0-2.83.08-4,.09l-2.59,0c-1.43,0-2.14-.49-2.14-1.47a1.87,1.87,0,0,1,.46-1.26,6.32,6.32,0,0,1,1.27-1.11l2.34-1.61c.79-.54,1.6-1.09,2.43-1.63-.27-.75-.56-1.5-.86-2.23s-.62-1.48-.94-2.24l1.92-.91q.46,1,.9,2.07c.3.68.58,1.38.83,2.08L339,2.88c.85-.53,1.71-1,2.59-1.56l.86,1.75c-.92.53-1.83,1.06-2.71,1.59s-1.74,1-2.59,1.58c.27.74.53,1.48.77,2.23s.46,1.51.67,2.26l3.46-.17,3.4-.19.27,1.89-3.39.18c-1.12.06-2.2.1-3.24.14.21.78.4,1.57.56,2.37s.31,1.61.45,2.43Zm-7.61-7,3-.07c1,0,2-.06,2.95-.08-.16-.57-.33-1.14-.52-1.7s-.37-1.11-.56-1.66q-2.52,1.67-4.9,3.39Z"/></svg>