<svg xmlns="http://www.w3.org/2000/svg" viewBox="0 0 282.02 14.28"><defs><style>.a{fill:#231f20;}</style></defs><path class="a" d="M11.48,12.69a.31.31,0,0,1,.08.38.53.53,0,0,1-.39.33,2.15,2.15,0,0,1-1.39-.47,13.79,13.79,0,0,1-1.5-1.25c-.49-.48-1-.95-1.42-1.44a5.89,5.89,0,0,0-1.18-1A8.83,8.83,0,0,0,4.6,10.29c-.38.43-.76.88-1.16,1.35s-.83.94-1.27,1.39A8.47,8.47,0,0,1,.78,14.18,1,1,0,0,1,.22,14,.54.54,0,0,1,0,13.63a.67.67,0,0,1,.13-.43,1.22,1.22,0,0,1,.46-.39,4,4,0,0,0,1.09-.87,12,12,0,0,0,1-1.26c.34-.45.65-.9.95-1.35s.56-.84.77-1.18a6.76,6.76,0,0,1-.88-1.06c-.3-.43-.58-.89-.85-1.37A14.74,14.74,0,0,1,2,4.26a7,7,0,0,1-.38-1.35.62.62,0,0,1,.18-.29,1.21,1.21,0,0,1,.42-.26,3.29,3.29,0,0,1,.8,1c.25.44.5.88.75,1.35s.51.89.78,1.3a2.49,2.49,0,0,0,.93.88,10.52,10.52,0,0,0,1-1.06L7.61,4.56c.36-.42.73-.83,1.1-1.2a4,4,0,0,1,1.16-.84.41.41,0,0,1,.65,0,.63.63,0,0,1,.15.34.6.6,0,0,1-.1.39A7.87,7.87,0,0,1,9.8,4.36c-.35.45-.73.91-1.12,1.38L7.53,7.08c-.36.43-.64.77-.82,1,.29.36.63.76,1,1.18s.81.84,1.25,1.26.86.81,1.29,1.19S11.11,12.43,11.48,12.69Z"/><path class="a" d="M31.37,2.91A5.92,5.92,0,0,0,30,4.57,19.72,19.72,0,0,0,28.8,7c-.38.87-.74,1.76-1.08,2.66s-.67,1.7-1,2.41a10.93,10.93,0,0,1-.85,1.69c-.26.41-.52.57-.76.46a1.5,1.5,0,0,1-.85-.72,13.9,13.9,0,0,1-.75-1.34c-.24-.49-.46-1-.68-1.45a4.3,4.3,0,0,0-.68-1.08,1.07,1.07,0,0,0-.72.3,5.54,5.54,0,0,0-.75.82c-.26.33-.51.68-.77,1.06s-.51.74-.75,1.06a4.54,4.54,0,0,1-.69.78.71.71,0,0,1-.62.23A1.86,1.86,0,0,1,16.84,13a8.42,8.42,0,0,1-.84-1.8q-.37-1.07-.69-2.31c-.2-.83-.4-1.64-.58-2.43s-.37-1.49-.54-2.12a5.72,5.72,0,0,0-.56-1.43.55.55,0,0,1,.71-.55,3.13,3.13,0,0,1,.84,1.25,9.12,9.12,0,0,1,.53,1.76c.14.65.26,1.32.37,2s.23,1.35.38,2A8.9,8.9,0,0,0,17,11,2.67,2.67,0,0,0,18,12.14a4,4,0,0,0,1.1-1.05c.33-.46.67-.92,1-1.38s.67-.89,1-1.28a2.3,2.3,0,0,1,1.15-.76,2.3,2.3,0,0,1,.8.89c.28.46.55,1,.81,1.49s.49,1,.72,1.46a1.72,1.72,0,0,0,.59.79c.18.1.36,0,.54-.41a12.3,12.3,0,0,0,.61-1.5c.23-.63.47-1.35.75-2.14s.57-1.58.9-2.34A17.18,17.18,0,0,1,29,3.81a4,4,0,0,1,1.33-1.42c.37-.22.65-.27.83-.14A.61.61,0,0,1,31.37,2.91Z"/><path class="a" d="M42.13,0a23.43,23.43,0,0,1,.47,3.36c.07,1.13.12,2.28.14,3.43s0,2.3.08,3.45.11,2.26.24,3.37a.66.66,0,0,1-.22.41.57.57,0,0,1-.39.12.54.54,0,0,1-.38-.18.68.68,0,0,1-.21-.45c-.12-1.15-.2-2.31-.24-3.46s-.06-2.33-.07-3.52a4.16,4.16,0,0,0-1.32-.4A15.22,15.22,0,0,0,38.69,6c-.52,0-1,0-1.58,0s-1,0-1.48,0a6.77,6.77,0,0,1-1.2-.15,1.13,1.13,0,0,1-.72-.44,1.33,1.33,0,0,1,.28-1,6.36,6.36,0,0,1,1.07-1.21A13,13,0,0,1,36.67,2,13.64,13.64,0,0,1,38.56.9,11.16,11.16,0,0,1,40.47.19,4.55,4.55,0,0,1,42.13,0ZM41.38,4.7a6.34,6.34,0,0,1,0-.76c0-.26,0-.53,0-.79a4.92,4.92,0,0,0-.07-.78A2.33,2.33,0,0,0,41,1.65,10.41,10.41,0,0,0,38.2,2.74a7.19,7.19,0,0,0-2.27,2,9,9,0,0,0,1.36.1c.46,0,.91,0,1.37,0L40,4.73Z"/><path class="a" d="M57,4.33a2.7,2.7,0,0,1-.5,1.8,3.57,3.57,0,0,1-1.3,1,7.69,7.69,0,0,1-1.74.54c-.64.12-1.22.25-1.76.4-.13,1-.22,1.92-.27,2.83s-.07,1.85-.07,2.83a.87.87,0,0,1-.22.32.5.5,0,0,1-.32.15.54.54,0,0,1-.35-.11.8.8,0,0,1-.26-.45A3.5,3.5,0,0,1,50,12.32c0-.47.07-1,.13-1.43s.13-1,.18-1.41a5.52,5.52,0,0,0,0-1.28A13.87,13.87,0,0,1,48.7,8a6.16,6.16,0,0,1-1.56-.56,4,4,0,0,1-1.22-1,3.13,3.13,0,0,1-.65-1.53,2.24,2.24,0,0,1,.65-2,6.34,6.34,0,0,1,2.21-1.42,10.74,10.74,0,0,1,3-.69,9.11,9.11,0,0,1,3,.17,4.46,4.46,0,0,1,2.21,1.15A2.51,2.51,0,0,1,57,4.33Zm-10.42.51a1.84,1.84,0,0,0,.52,1,2.76,2.76,0,0,0,.93.58,3.62,3.62,0,0,0,1.14.24,5.92,5.92,0,0,0,1.13,0c0-.33,0-.7,0-1.09V4.34c0-.37,0-.72,0-1s0-.59,0-.8A3.51,3.51,0,0,0,49,2.55,3.68,3.68,0,0,0,47.85,3a3.06,3.06,0,0,0-.86.78A2.5,2.5,0,0,0,46.54,4.84Zm9.15-.38A2.24,2.24,0,0,0,55.27,3a2.23,2.23,0,0,0-1-.73,3.56,3.56,0,0,0-1.36-.19,6.74,6.74,0,0,0-1.34.2,8.25,8.25,0,0,0-.06,1.24c0,.44,0,.87.05,1.28s0,.8.08,1.15,0,.61,0,.8c.35,0,.76,0,1.24-.1a5.56,5.56,0,0,0,1.37-.29,2.81,2.81,0,0,0,1.07-.68A1.57,1.57,0,0,0,55.69,4.46Z"/><path class="a" d="M65.78,3a.84.84,0,0,1,.77.48,7.46,7.46,0,0,1,.46,1,5.91,5.91,0,0,0,.44,1,.8.8,0,0,0,.73.47,1.23,1.23,0,0,0,.62-.18c.21-.13.43-.25.64-.39a5.26,5.26,0,0,1,.65-.36,1.18,1.18,0,0,1,.66-.14.56.56,0,0,1,.38.38.32.32,0,0,1-.17.46,5.51,5.51,0,0,0-.62.43c-.24.18-.49.37-.76.55a6,6,0,0,1-.79.49,1.65,1.65,0,0,1-.72.24,1.22,1.22,0,0,1-1-.13,2.28,2.28,0,0,1-.61-.66c-.17-.28-.33-.56-.48-.87a2.56,2.56,0,0,0-.55-.76,6.4,6.4,0,0,1-.65.4,9,9,0,0,1-.83.4,6.58,6.58,0,0,1-.85.29,2.41,2.41,0,0,1-.78.08,8.91,8.91,0,0,0,.19,1.89c.13.6.27,1.2.42,1.78s.29,1.19.41,1.79a10.24,10.24,0,0,1,.17,1.84,1.58,1.58,0,0,1-.24.39.67.67,0,0,1-.34.24.43.43,0,0,1-.35,0,.78.78,0,0,1-.29-.43,21.18,21.18,0,0,0-.57-3.07c-.27-1-.55-2.09-.82-3.15s-.52-2.12-.73-3.17a15.25,15.25,0,0,1-.33-3.12c.32-.38.63-.51.91-.38a1,1,0,0,1,.54.82,8.35,8.35,0,0,1,0,.91,4.87,4.87,0,0,0,.1,1,2.1,2.1,0,0,0,.34.79,1,1,0,0,0,.79.38.85.85,0,0,0,.87,0,4.46,4.46,0,0,0,.82-.61l.77-.74A1.08,1.08,0,0,1,65.78,3Z"/><path class="a" d="M80.7,1.38A2.63,2.63,0,0,1,82,3.13a4.72,4.72,0,0,1-.16,2.36,11.62,11.62,0,0,1-1.23,2.63,19.86,19.86,0,0,1-1.9,2.55,21.67,21.67,0,0,1-2.15,2.14,10.09,10.09,0,0,1-2,1.37.68.68,0,0,1-.36-.28.4.4,0,0,1,0-.34,1.94,1.94,0,0,1,.2-.37,2.24,2.24,0,0,1,.27-.34l1.52-1.58c.57-.58,1.13-1.17,1.67-1.79s1-1.23,1.52-1.85a9.48,9.48,0,0,0,1.1-1.82,3.68,3.68,0,0,0,.35-1.64,1.78,1.78,0,0,0-.67-1.3,2.56,2.56,0,0,0-1.31.34A8.59,8.59,0,0,0,77.69,4c-.38.31-.76.62-1.15.92a4.36,4.36,0,0,1-1.28.71c-.35-.11-.55-.28-.6-.52a.83.83,0,0,1,.19-.71v0a15.41,15.41,0,0,0,1.32-1,15,15,0,0,1,1.35-1A6.45,6.45,0,0,1,79,1.57,3.85,3.85,0,0,1,80.7,1.38Z"/><path class="a" d="M89.89,2.08a6,6,0,0,1,2.84.49A3.7,3.7,0,0,1,94.37,4a2.85,2.85,0,0,1,.3,2,4,4,0,0,1-1.19,2.1c-.33.34-.64.64-.92.91a4.33,4.33,0,0,1-.88.68,3.23,3.23,0,0,1-1.05.4,5.62,5.62,0,0,1-1.41.07,5.25,5.25,0,0,1-1.66-.27,4.45,4.45,0,0,1-1.42-.79,2.78,2.78,0,0,1-.85-1.28,2.81,2.81,0,0,1,0-1.74,7.7,7.7,0,0,1,.58-1.61,5.12,5.12,0,0,1,.93-1.3,3.67,3.67,0,0,1,1.31-.87A4.32,4.32,0,0,1,89.89,2.08Zm.43,1.65a3.08,3.08,0,0,0-2.45.59,3.91,3.91,0,0,0-1.12,2.2,1.28,1.28,0,0,0,0,1.12,1.63,1.63,0,0,0,.73.64,3.57,3.57,0,0,0,1.08.28,8.44,8.44,0,0,0,1.07.07,3.53,3.53,0,0,0,.93-.1,2.18,2.18,0,0,0,.7-.3,3.44,3.44,0,0,0,.62-.48c.19-.19.4-.43.62-.7a2.82,2.82,0,0,0,.77-1.45A1.4,1.4,0,0,0,93,4.53a2.14,2.14,0,0,0-1.07-.64A5.06,5.06,0,0,0,90.32,3.73Z"/><path class="a" d="M106.25,1.67a1.54,1.54,0,0,1,.27.31.65.65,0,0,1,.1.33.4.4,0,0,1-.14.29,1.09,1.09,0,0,1-.48.2,8.12,8.12,0,0,1-1.7.23,11.1,11.1,0,0,0-1.65.18,2.91,2.91,0,0,0-.12.78c0,.29,0,.57,0,.82h1.79l1.76.07a.43.43,0,0,1,.32.45.5.5,0,0,1-.27.49,3.21,3.21,0,0,1-.74.11L104.2,6l-1.15,0h-.62c0,.38,0,.76,0,1.15s0,.76,0,1.14c.61,0,1.28.05,2,.05s1.41,0,2,.06a.76.76,0,0,1,.26.25.75.75,0,0,1,.15.36.48.48,0,0,1-.07.34.45.45,0,0,1-.39.17c-.78,0-1.45.05-2,0h-1.87c0,.17,0,.36,0,.56s0,.46,0,.76v2.8a1.85,1.85,0,0,1-.29.24.87.87,0,0,1-.33.17.42.42,0,0,1-.31,0,.6.6,0,0,1-.22-.4,5.06,5.06,0,0,1-.1-1c0-.35,0-.69,0-1.05s0-.7,0-1.06a6.37,6.37,0,0,0-.12-1.07c-.6,0-1,0-1.31,0h-.64a2.77,2.77,0,0,1-.42,0l-.68-.17a.55.55,0,0,1-.32-.21.28.28,0,0,1,0-.23.39.39,0,0,1,.12-.2L98,8.56a7.57,7.57,0,0,1,1.65-.2c.52,0,1.07,0,1.64.07,0-.38,0-.76,0-1.13s0-.76,0-1.16a6.91,6.91,0,0,0-1.28,0,9.5,9.5,0,0,1-1.29.08.46.46,0,0,1-.38-.18.44.44,0,0,1-.1-.32.72.72,0,0,1,.16-.33.59.59,0,0,1,.35-.24,5.3,5.3,0,0,1,1.3-.18,12.05,12.05,0,0,0,1.29-.09V3.37l-1.43.07a12.1,12.1,0,0,1-1.46,0A1,1,0,0,1,98,3.16a.67.67,0,0,1-.22-.4.5.5,0,0,1,.13-.39.85.85,0,0,1,.54-.22h.07l.69,0,.79,0c.26,0,.51,0,.73-.06a2,2,0,0,0,.49-.09,2,2,0,0,0,0-.45,1.87,1.87,0,0,1,0-.45,1.09,1.09,0,0,1,.28-.37A1.41,1.41,0,0,1,102,.39a.51.51,0,0,1,.4,0c.12,0,.18.19.18.44s0,.3,0,.47a4.4,4.4,0,0,0,.05.51,14,14,0,0,0,1.79-.07A12.42,12.42,0,0,1,106.25,1.67Z"/><path class="a" d="M111.3,1.17a.58.58,0,0,1,.31-.47.59.59,0,0,1,.47,0,.66.66,0,0,1,.34.32.63.63,0,0,1,0,.55,1.9,1.9,0,0,0-.46.66,3.28,3.28,0,0,0-.26.86,4.36,4.36,0,0,0,0,.88,2.34,2.34,0,0,0,.14.76,2.51,2.51,0,0,0,1.16-.25,5.49,5.49,0,0,0,1-.7,6.6,6.6,0,0,0,.9-.93,9.06,9.06,0,0,0,.71-1,.31.31,0,0,1,.21-.13,1.4,1.4,0,0,1,.36,0,1.84,1.84,0,0,1,.38.08.72.72,0,0,1,.29.18,19,19,0,0,1-.4,6,27,27,0,0,1-2.12,5.89.51.51,0,0,1-.37.28.67.67,0,0,1-.42-.07.52.52,0,0,1-.26-.32.45.45,0,0,1,.11-.44l0,0c.22-.74.48-1.54.77-2.4s.55-1.71.78-2.54a18.44,18.44,0,0,0,.5-2.35,4.66,4.66,0,0,0,0-1.85l-.8.66a11.21,11.21,0,0,1-.93.69,7.13,7.13,0,0,1-1,.54,2.86,2.86,0,0,1-1.06.21A1.26,1.26,0,0,1,110.7,6a1.48,1.48,0,0,1-.36-.8,3.52,3.52,0,0,1,0-1.07A8.72,8.72,0,0,1,110.62,3c.12-.38.24-.73.37-1S111.22,1.36,111.3,1.17Z"/><path class="a" d="M120.39,3.52q-.18-.52,0-.72a.53.53,0,0,1,.49-.14,1.15,1.15,0,0,1,.61.31.91.91,0,0,1,.32.65c-.06.49,0,.8.13.94a.53.53,0,0,0,.61,0,3.09,3.09,0,0,0,.82-.6,4.93,4.93,0,0,0,.76-1,.58.58,0,0,1,.26-.32.41.41,0,0,1,.31,0,.64.64,0,0,1,.28.22,2.43,2.43,0,0,1,.24.32,2.06,2.06,0,0,0,.16,1.18.51.51,0,0,0,.6.18,2.64,2.64,0,0,0,.87-.46c.32-.23.62-.47.91-.72l.78-.64c.23-.19.39-.25.49-.21a2,2,0,0,1,1.22,1.23,5.87,5.87,0,0,1,.36,2.13,12.06,12.06,0,0,1-.29,2.53,18.72,18.72,0,0,1-.71,2.49,12.83,12.83,0,0,1-.93,2,2.81,2.81,0,0,1-.94,1.06.62.62,0,0,1-.52.19.64.64,0,0,1-.41-.24.68.68,0,0,1-.17-.45.45.45,0,0,1,.25-.42,3,3,0,0,0,.74-.85,11.48,11.48,0,0,0,.75-1.41A12.13,12.13,0,0,0,129,9.08a10,10,0,0,0,.33-1.81,5.39,5.39,0,0,0-.07-1.62,2.22,2.22,0,0,0-.64-1.19A7.11,7.11,0,0,1,128,5a5.68,5.68,0,0,1-.83.6,6.08,6.08,0,0,1-.92.46,2.47,2.47,0,0,1-.9.17,1.26,1.26,0,0,1-.77-.29,1.61,1.61,0,0,1-.48-.9,2.09,2.09,0,0,1-1.22,1.09,1.77,1.77,0,0,1-1.3-.14,2.43,2.43,0,0,1-1-1A2.27,2.27,0,0,1,120.39,3.52Z"/><path class="a" d="M137.55,1.56a.38.38,0,0,1,.3-.26.54.54,0,0,1,.36,0,.67.67,0,0,1,.26.24.33.33,0,0,1,0,.33c-.32.77-.68,1.54-1.08,2.29s-.79,1.53-1.15,2.32-.67,1.58-.95,2.38a9.81,9.81,0,0,0-.5,2.44,1.53,1.53,0,0,0,.14,1,.87.87,0,0,0,.57.42,1.87,1.87,0,0,0,.84,0,4.18,4.18,0,0,0,.92-.36,3.8,3.8,0,0,0,.84-.58,2.94,2.94,0,0,0,.56-.66,1,1,0,0,1,.51-.48,1,1,0,0,1,.6-.09.5.5,0,0,1,.36.33,1,1,0,0,1-.1.74,3.82,3.82,0,0,1-.89,1.2,5.83,5.83,0,0,1-1.34.9,5.33,5.33,0,0,1-1.51.45,2.93,2.93,0,0,1-1.4-.12,2,2,0,0,1-1-.82,2.93,2.93,0,0,1-.29-1.7,9.92,9.92,0,0,1,.48-2.59,23.12,23.12,0,0,1,1-2.58c.38-.84.79-1.67,1.23-2.48S137.14,2.29,137.55,1.56Z"/><path class="a" d="M152.9,1.58l-1.23,2.89c-.44,1-.88,2.09-1.33,3.18s-.9,2.17-1.34,3.25S148.16,13,147.79,14a.65.65,0,0,1-.43.23,1,1,0,0,1-.51,0,.58.58,0,0,1-.33-.34.68.68,0,0,1,.14-.62c.42-1.06.83-2.1,1.23-3.13a25.56,25.56,0,0,1,1.36-2.94,6.49,6.49,0,0,0-1.41-.06l-1.5.06q-.75,0-1.5,0a5.58,5.58,0,0,1-1.42-.27.86.86,0,0,1-.41-.24,1,1,0,0,1-.24-.37.65.65,0,0,1,0-.39.6.6,0,0,1,.3-.31,4,4,0,0,1,.76-.1c.32,0,.67,0,1,0l1.17,0,1.15,0a3.9,3.9,0,0,1-.18-.62c0-.21-.08-.43-.12-.67s-.09-.47-.13-.72-.12-.53-.21-.85c.25-.21.43-.31.55-.3s.28.24.48.69.24.84.39,1.27a3.52,3.52,0,0,0,.64,1.12,3.53,3.53,0,0,0,1.24-.77,5.37,5.37,0,0,0,.88-1.12,9,9,0,0,0,.65-1.32c.18-.46.37-.92.56-1.37a1.88,1.88,0,0,1,.45-.12.65.65,0,0,1,.38.07.44.44,0,0,1,.2.29A.82.82,0,0,1,152.9,1.58Z"/><path class="a" d="M156,4.2a3.39,3.39,0,0,1,.91-.47q.62-.24,1.32-.45A12.36,12.36,0,0,1,159.54,3a4.06,4.06,0,0,1,1.05-.06,2,2,0,0,1,1.5.77,4.08,4.08,0,0,1,.67,1.62,10.07,10.07,0,0,1,.16,2c0,.72,0,1.57.08,2.55a12.64,12.64,0,0,0,.27,2.08c.11.41.34.61.69.61a2.39,2.39,0,0,0,.95-.23c.34-.15.69-.31,1.05-.49a11.55,11.55,0,0,1,1.09-.47,2.48,2.48,0,0,1,1-.18c.25,0,.4.06.46.17a.46.46,0,0,1,0,.41,1.67,1.67,0,0,1-.36.48,2.78,2.78,0,0,1-.47.4l-.89.52a8.27,8.27,0,0,1-1,.5c-.36.15-.72.28-1.07.39a3.6,3.6,0,0,1-1,.15,1.75,1.75,0,0,1-1.4-.58,2.63,2.63,0,0,1-.5-1.3c-.07-.5-.11-1.22-.14-2.17s-.08-1.63-.14-2.08a6.61,6.61,0,0,1-1.42.39c-.49.08-1,.13-1.47.17a.4.4,0,0,1-.4,0,.67.67,0,0,1-.24-.31.9.9,0,0,1-.05-.4.42.42,0,0,1,.17-.3,1.2,1.2,0,0,1,.59-.28,7.62,7.62,0,0,1,.88-.17L160.5,7a1.69,1.69,0,0,0,.66-.23.71.71,0,0,0,.15-.47,3,3,0,0,0-.06-.71,2,2,0,0,0-.25-.69.67.67,0,0,0-.44-.35,2.42,2.42,0,0,0-1-.1,7.05,7.05,0,0,0-1.16.2c-.39.1-.78.22-1.15.35l-1,.34a.42.42,0,0,1-.42,0,.52.52,0,0,1-.24-.33.69.69,0,0,1,0-.45A.67.67,0,0,1,156,4.2Z"/><path class="a" d="M180.54,9.09a8,8,0,0,1-.78,1.75,8.15,8.15,0,0,1-1.22,1.57,6.75,6.75,0,0,1-1.57,1.2,4.53,4.53,0,0,1-1.83.59,7.68,7.68,0,0,1-2.76-.3,4.39,4.39,0,0,1-1.82-1.09,4.29,4.29,0,0,1-1-1.75,7.82,7.82,0,0,1-.32-2.29,4.69,4.69,0,0,1,.61-2.38,6.22,6.22,0,0,1,1.55-1.83,7.14,7.14,0,0,1,2.14-1.16,7.47,7.47,0,0,1,2.41-.4,7.79,7.79,0,0,1,2.56.38,4,4,0,0,1,1.8,1.15,3.23,3.23,0,0,1,.78,1.91A5.57,5.57,0,0,1,180.54,9.09Zm-6.43,3.67s.08,0,.09,0a9.32,9.32,0,0,0,.14-1.65q0-.88.09-1.68a8.48,8.48,0,0,1-1.09.17c-.35,0-.69.06-1,.07l-.88.06a2.55,2.55,0,0,0-.72.15,1.36,1.36,0,0,0,.05,1.23,3.07,3.07,0,0,0,.87,1,3.83,3.83,0,0,0,1.25.61A2.48,2.48,0,0,0,174.11,12.76Zm.67-8.18a2.67,2.67,0,0,0-1.39.22,3.75,3.75,0,0,0-1.21.8,4.14,4.14,0,0,0-.88,1.19A3,3,0,0,0,171,8.13a2.71,2.71,0,0,1,.7-.12l.94,0h1a4.75,4.75,0,0,0,.82-.06,4.4,4.4,0,0,0,.15-.73c0-.29.08-.6.11-.92s.06-.63.08-.94S174.78,4.78,174.78,4.58Zm4.66,4.58a9.23,9.23,0,0,1-1.93.18l-1.77,0c-.08.63-.13,1.14-.14,1.53s0,.71,0,1a3.19,3.19,0,0,0,0,.52,1,1,0,0,1,0,.2,2.8,2.8,0,0,0,1.18-.37,4.69,4.69,0,0,0,1.07-.82,7,7,0,0,0,.89-1.07A10.31,10.31,0,0,0,179.44,9.16ZM176,7.72a17.94,17.94,0,0,0,1.82.06,3.84,3.84,0,0,0,1.59-.32,2.44,2.44,0,0,0-.1-1.61,2.33,2.33,0,0,0-.84-1,2.36,2.36,0,0,0-1.14-.39,1.77,1.77,0,0,0-1,.17,6.65,6.65,0,0,0-.3,1.53A13.17,13.17,0,0,0,176,7.72Z"/><path class="a" d="M184.68,2.87a2.84,2.84,0,0,1,.13.67,2.23,2.23,0,0,0,.14.68c.41-.07.86-.13,1.34-.18s1-.12,1.45-.21a12.76,12.76,0,0,0,1.42-.32A5.6,5.6,0,0,0,190.4,3a1.93,1.93,0,0,1,.5-.38,3.49,3.49,0,0,1,.75-.31,1.64,1.64,0,0,1,.68-.06.4.4,0,0,1,.34.39c.1.93.16,1.8.17,2.6s0,1.6,0,2.39,0,1.57,0,2.35,0,1.61.12,2.47a2.5,2.5,0,0,1-.07.54,1.05,1.05,0,0,1-.22.45.47.47,0,0,1-.37.16.92.92,0,0,1-.54-.33,1.91,1.91,0,0,1-.1-.66,2.34,2.34,0,0,0-.1-.71,6.87,6.87,0,0,0-3,.51,17.57,17.57,0,0,0-2.69,1.39.64.64,0,0,1-.52.44.72.72,0,0,1-.64-.2c-.2-.9-.37-1.8-.49-2.72s-.22-1.83-.31-2.76-.16-1.85-.21-2.79-.13-1.87-.21-2.8a.51.51,0,0,1,.46-.26A1.47,1.47,0,0,1,184.68,2.87Zm6.82,3.79a9.37,9.37,0,0,1,0-1.4,6.22,6.22,0,0,0-.06-1.48,4.64,4.64,0,0,1-1.3.58q-.81.24-1.71.42c-.6.12-1.2.23-1.79.31s-1.12.18-1.58.27a7.94,7.94,0,0,0,0,1.38,3.41,3.41,0,0,0,.31,1.3,5.64,5.64,0,0,1,1.44-.43l1.61-.24c.55-.07,1.08-.15,1.61-.25A5.3,5.3,0,0,0,191.5,6.66Zm.07,4.08c0-.46,0-1-.06-1.48s0-1,0-1.52a8.12,8.12,0,0,1-1.49.37l-1.54.22q-.76.11-1.53.27a7.25,7.25,0,0,0-1.44.51,9,9,0,0,0,0,1.64,7.19,7.19,0,0,0,.29,1.62c.91-.41,1.84-.79,2.8-1.14A8.66,8.66,0,0,1,191.57,10.74Z"/><path class="a" d="M205.78,11.68c.25.08.4.18.45.31a.47.47,0,0,1,0,.4,1.37,1.37,0,0,1-.3.42,3.07,3.07,0,0,1-.37.36,9.19,9.19,0,0,1-2.36.42c-.83,0-1.66.06-2.5.05s-1.66,0-2.46,0a7.31,7.31,0,0,0-2.23.45.41.41,0,0,1-.36.06.45.45,0,0,1-.23-.22,3.27,3.27,0,0,1-.14-.33c0-.12-.07-.23-.1-.33a1.48,1.48,0,0,1,.9-.62,6.58,6.58,0,0,1,1.28-.21c.44,0,.89,0,1.34,0a4.92,4.92,0,0,0,1.15-.09c0-.26.06-.62.07-1.07s0-.93,0-1.43,0-1,0-1.55,0-1,0-1.46,0-.84,0-1.18,0-.56,0-.67a6.27,6.27,0,0,0-1.62,0,5.59,5.59,0,0,1-1.59,0,.63.63,0,0,1-.38-.49.68.68,0,0,1,.35-.63l.68,0,1.27-.1,1.61-.14,1.72-.17,1.62-.17c.49-.05.91-.11,1.24-.17a1.38,1.38,0,0,1,.17.32,1.09,1.09,0,0,1,.07.33.6.6,0,0,1-.08.29.59.59,0,0,1-.33.21l-1.47.33a10.74,10.74,0,0,1-1.56.19,20,20,0,0,0-.3,3.75c0,1.29.07,2.56.16,3.81q1.08-.17,2.19-.39A11,11,0,0,1,205.78,11.68Z"/><path class="a" d="M217.9,1.7c-.14.47-.3,1-.5,1.5a15.85,15.85,0,0,1-.66,1.54,14.13,14.13,0,0,1-.84,1.46,8.91,8.91,0,0,1-1,1.23,2.42,2.42,0,0,0-.67,1.46,12.07,12.07,0,0,0,0,1.82c0,.63,0,1.25,0,1.86a3.16,3.16,0,0,1-.4,1.58.56.56,0,0,1-.66-.07,1.34,1.34,0,0,1-.32-.6,6.48,6.48,0,0,0,.1-1.5c0-.55,0-1.11-.08-1.68s0-1.14,0-1.7a5.19,5.19,0,0,1,.25-1.55,7.74,7.74,0,0,1-1.59-.63,6.38,6.38,0,0,1-1.37-1,5.53,5.53,0,0,1-1-1.34,5.36,5.36,0,0,1-.56-1.62.57.57,0,0,1,.07-.39.91.91,0,0,1,.29-.35.73.73,0,0,1,.38-.14.34.34,0,0,1,.32.22l.73,1.37a6.71,6.71,0,0,0,.83,1.26,3.65,3.65,0,0,0,1.12.91,3,3,0,0,0,1.62.26,9.33,9.33,0,0,0,.91-.88,11,11,0,0,0,.87-1.05,10.23,10.23,0,0,0,.72-1.17,4.89,4.89,0,0,0,.45-1.2,1.37,1.37,0,0,0,.34,0,1.22,1.22,0,0,1,.33,0,.47.47,0,0,1,.26.11A.63.63,0,0,1,217.9,1.7Z"/><path class="a" d="M229.18,1.24a2,2,0,0,1,0,.73c0,.44,0,1-.07,1.69S229.07,5.13,229,6s-.16,1.76-.25,2.67-.18,1.79-.27,2.65-.17,1.63-.26,2.31a.71.71,0,0,1-.4.5c-.18.06-.35,0-.52-.27a2.36,2.36,0,0,1-.28-1.09,8.81,8.81,0,0,1,0-1.14l.12-1.15a3.55,3.55,0,0,0-.06-1.13,10.31,10.31,0,0,1-1.29.17c-.45,0-.91.06-1.37.07s-.92,0-1.37,0l-1.26,0a2.21,2.21,0,0,1-.64-.13,1.38,1.38,0,0,1-.48-.28.44.44,0,0,1-.16-.39.83.83,0,0,1,.36-.5c.54,0,1.08,0,1.61,0s1.05,0,1.57,0,1-.06,1.55-.13a7.74,7.74,0,0,0,1.53-.37q.09-.51.24-1.08a2.69,2.69,0,0,0,0-1.2c-.69,0-1.3,0-1.82,0l-1.51.07-1.45.07c-.48,0-1,0-1.61,0a.55.55,0,0,1-.34-.46,1.34,1.34,0,0,1,.13-.54,10.28,10.28,0,0,1,1.56-.24c.59,0,1.2-.09,1.81-.12l1.8-.12A8.92,8.92,0,0,0,227.55,4a1.64,1.64,0,0,0,.1-.66,4.33,4.33,0,0,1,.12-1c-1.17,0-2.35,0-3.55.06s-2.36.17-3.52.28a.76.76,0,0,1-.41-.2.71.71,0,0,1-.2-.32.42.42,0,0,1,0-.29.27.27,0,0,1,.27-.15c.67,0,1.37-.1,2.11-.19l2.24-.28c.76-.09,1.52-.14,2.27-.16A9.57,9.57,0,0,1,229.18,1.24Z"/><path class="a" d="M241.18,9.88a.64.64,0,0,1-.21.51.61.61,0,0,1-.42.15.46.46,0,0,1-.37-.18.62.62,0,0,1-.11-.51c-1.43-.17-2.84-.32-4.25-.46a40.24,40.24,0,0,1-4.37-.69.91.91,0,0,1-.5-.37.38.38,0,0,1,.1-.52c.81-.44,1.57-.9,2.29-1.36s1.39-.94,2.06-1.41l2-1.42c.65-.47,1.33-.94,2-1.4a5.19,5.19,0,0,1,1,1.64,11.75,11.75,0,0,1,.53,2A16.29,16.29,0,0,1,241.13,8C241.16,8.65,241.18,9.29,241.18,9.88Zm-1.4-2.35a6.83,6.83,0,0,0-.26-1.67,7.44,7.44,0,0,0-.63-1.53q-.51.3-1,.69l-1.13.82-1.14.86a10.17,10.17,0,0,1-1.12.73l2.67.2A12.35,12.35,0,0,0,239.78,7.53Z"/><path class="a" d="M253.43,13.7a.63.63,0,0,1-.19.32.74.74,0,0,1-.31.17.54.54,0,0,1-.33,0,.4.4,0,0,1-.25-.27c-.13-.4-.28-.89-.45-1.48s-.35-1.22-.55-1.89-.4-1.36-.59-2.06-.39-1.35-.57-1.94-.33-1.13-.48-1.59-.25-.77-.31-1c-.76.65-1.54,1.33-2.32,2.05s-1.56,1.45-2.31,2.17a.76.76,0,0,1-.62-.23.73.73,0,0,1-.15-.59c.12-.16.34-.41.66-.77s.68-.74,1.1-1.17.88-.88,1.35-1.33.92-.84,1.34-1.19a9.6,9.6,0,0,1,1.15-.81c.34-.2.6-.26.76-.18h.07c0,.05.12.29.27.7s.31,1,.51,1.6.42,1.38.66,2.19.48,1.66.69,2.51.4,1.7.56,2.52A17.44,17.44,0,0,1,253.43,13.7Z"/><path class="a" d="M257.48,6.09a1.39,1.39,0,0,1,.43-.81,9,9,0,0,1,1.12-1q.69-.57,1.5-1.14c.54-.38,1.07-.73,1.58-1a9.88,9.88,0,0,1,1.4-.72,1.81,1.81,0,0,1,.88-.22c.18,0,.32.17.42.52A7,7,0,0,1,265,2.93c0,.52.08,1.1.1,1.73s0,1.23,0,1.8,0,1.07,0,1.5,0,.72,0,.86a5,5,0,0,1-.39,2.14,5.29,5.29,0,0,1-1.16,1.7,5.41,5.41,0,0,1-1.75,1.12,5.67,5.67,0,0,1-2.09.4s0,0,0,0a.53.53,0,0,1-.29-.14.51.51,0,0,1-.16-.25.39.39,0,0,1,0-.28.4.4,0,0,1,.24-.22,10.09,10.09,0,0,0,1.71-.61,6.79,6.79,0,0,0,1.58-1,3.89,3.89,0,0,0,1.06-1.4,2.61,2.61,0,0,0,.07-1.84,4.9,4.9,0,0,0-.7-.18L261.91,8c-.47-.09-1-.19-1.49-.32A14.49,14.49,0,0,1,259,7.26a4.94,4.94,0,0,1-1.08-.53A.79.79,0,0,1,257.48,6.09ZM263.6,3a5.09,5.09,0,0,0-1.62.55,6.86,6.86,0,0,0-1.25.87,5.47,5.47,0,0,0-.79.88,1.15,1.15,0,0,0-.25.55,4.75,4.75,0,0,0,.9.4c.34.12.71.23,1.09.33l1.15.3c.38.09.74.15,1.08.2a5.45,5.45,0,0,0,.12-.91,10.06,10.06,0,0,0,0-1.09,9.9,9.9,0,0,0-.14-1.11A4.87,4.87,0,0,0,263.6,3Z"/><path class="a" d="M273,5.59a9.46,9.46,0,0,1-.18-1.91,12.27,12.27,0,0,1,.16-2c.15-.52.3-.81.44-.89s.25,0,.34.13a2.36,2.36,0,0,1,.23.71,5.72,5.72,0,0,1,.11.81c0,.45.06.91.07,1.37a5.52,5.52,0,0,0,.21,1.3,13.78,13.78,0,0,0,1.26-.84l1.29-.94c.44-.3.85-.58,1.25-.82a4.23,4.23,0,0,1,1.1-.51.39.39,0,0,1,.43.24.45.45,0,0,1,0,.54,10.07,10.07,0,0,1-1,.9c-.42.33-.88.66-1.36,1l-1.48,1q-.75.48-1.32.9a2.74,2.74,0,0,0,0,.45c0,.17,0,.35.07.54l.06.53a2.92,2.92,0,0,1,0,.42q.85.16,1.92.48c.7.2,1.4.43,2.08.66s1.33.47,1.91.7l1.39.55s.06.07.05.15a.55.55,0,0,1-.07.24.94.94,0,0,1-.18.24.54.54,0,0,1-.26.15c-.49-.1-1.05-.23-1.7-.41s-1.3-.36-2-.55-1.26-.37-1.83-.51A6.94,6.94,0,0,0,274.7,10a3.86,3.86,0,0,0,0,1c.05.43.11.86.17,1.29s.09.81.11,1.15,0,.52-.18.55a.34.34,0,0,1-.2.29.55.55,0,0,1-.34,0,1,1,0,0,1-.37-.12.57.57,0,0,1-.24-.22c-.07-.59-.12-1.07-.15-1.46s0-.73-.06-1,0-.58,0-.87,0-.63,0-1a7.34,7.34,0,0,0-1-.22l-1.14-.18L270.14,9l-1-.14a2,2,0,0,1-.56-.24,1,1,0,0,1-.37-.39.67.67,0,0,1,0-.52,1.2,1.2,0,0,1,.59-.57,5.18,5.18,0,0,0,.78-.21l1-.37,1.16-.47ZM273.12,7l-.57.25-.56.26a2.19,2.19,0,0,0-.42.27c-.1.08-.13.16-.1.23l.91.15a7.78,7.78,0,0,0,.9.13Z"/></svg>