<svg xmlns="http://www.w3.org/2000/svg" viewBox="0 0 274.42 30.54"><defs><style>.a{fill:#231f20;}</style></defs><path class="a" d="M9,9.66a1.47,1.47,0,0,1,.55-.72,1,1,0,0,1,.54-.17h.07a.76.76,0,0,1,.49.22.72.72,0,0,1,.2.5.67.67,0,0,1,0,.17,2.17,2.17,0,0,0-.07.24,2.81,2.81,0,0,0-.1.31L8.16,15.69H12a.32.32,0,0,1,.26.16,1.49,1.49,0,0,1,.17.36,2.22,2.22,0,0,1,.1.41,2.39,2.39,0,0,1,0,.31,2.25,2.25,0,0,1-.17.79,3.8,3.8,0,0,1-.45.84,4.92,4.92,0,0,1-.68.76,2.66,2.66,0,0,1-.82.51l-.17,0-.13,0a.28.28,0,0,1-.11-.08.15.15,0,0,1,0-.11.13.13,0,0,1,0-.05s0,0,.06,0c.14-.15.28-.28.4-.4s.24-.23.33-.34a1.41,1.41,0,0,0,.24-.32.75.75,0,0,0,.09-.37,1.7,1.7,0,0,0,0-.26,1.06,1.06,0,0,0-.09-.35,1.28,1.28,0,0,0-.15-.31.29.29,0,0,0-.24-.14H7.89a.24.24,0,0,1-.1.05.25.25,0,0,0-.12.07,1.25,1.25,0,0,0-.15.19,3.66,3.66,0,0,0-.18.41L6,20.71c-.48,1.05-1,2.13-1.51,3.22s-1.06,2.18-1.61,3.26-1.1,2.11-1.65,3.07a.58.58,0,0,1-.31.24,1.9,1.9,0,0,1-.37,0,.59.59,0,0,1-.21,0,.51.51,0,0,1-.22-.11A.62.62,0,0,1,0,30.15a.19.19,0,0,1,0-.08.6.6,0,0,1,.07-.26Z"/><path class="a" d="M14,13a1.26,1.26,0,0,1,.08-.45,2.06,2.06,0,0,1,.21-.48,2.29,2.29,0,0,1,.32-.43,1.47,1.47,0,0,1,.38-.3.44.44,0,0,1,.29-.13.53.53,0,0,1,.22.07.35.35,0,0,1,.14.33V12q0,.25.06.57a3.77,3.77,0,0,0,.16.6.89.89,0,0,0,.33.42,3.49,3.49,0,0,0,.31.38,4.47,4.47,0,0,0,.42.45c.14.15.28.27.4.38s.2.16.24.16a1,1,0,0,0,.27.16l.16,0A.45.45,0,0,0,18.2,15V11.87a1.75,1.75,0,0,1,0-.4.75.75,0,0,1,.15-.31.6.6,0,0,1,.29-.18.75.75,0,0,1,.22,0,1.18,1.18,0,0,1,.26,0h0a.54.54,0,0,1,.39.17,1,1,0,0,1,.25.44v3.29a1.17,1.17,0,0,0,.88-.33,2.58,2.58,0,0,0,.52-.8,9.38,9.38,0,0,0,.37-1,4.34,4.34,0,0,1,.42-1l.28-.19a.6.6,0,0,1,.4.12.77.77,0,0,1,.19.28,1.05,1.05,0,0,1,.08.36c0,.13,0,.25,0,.35a3.33,3.33,0,0,1-.42,1.71,3.73,3.73,0,0,1-1.09,1.21,4.74,4.74,0,0,1-1.5.72,6.25,6.25,0,0,1-1.65.23,4.34,4.34,0,0,1-1.44-.27,5.42,5.42,0,0,1-1.43-.75,4.5,4.5,0,0,1-1.08-1.14A2.5,2.5,0,0,1,14,13Z"/><path class="a" d="M25.45,17a1.09,1.09,0,0,1-1.1-1.1,2.13,2.13,0,0,1,.31-1,7.51,7.51,0,0,1,.79-1.13,9.91,9.91,0,0,1,1.07-1.08,7.64,7.64,0,0,1,1.13-.84,2.86,2.86,0,0,1,1-.41l.16,0a.54.54,0,0,1,.47.25c.49,1,1,1.91,1.42,2.85s.91,1.88,1.36,2.82l1.36,2.82q.68,1.41,1.41,2.85a1.46,1.46,0,0,1,.16.36,2.46,2.46,0,0,1,.09.34,2.9,2.9,0,0,1,0,.34.7.7,0,0,1-.13.46.56.56,0,0,1-.44.16,1.35,1.35,0,0,1-.61-.16,2.39,2.39,0,0,1-.55-.41,3,3,0,0,1-.47-.54A2.81,2.81,0,0,1,32.6,23l-2.74-6Zm2.46-3.67c-.11.11-.27.25-.45.44a5.68,5.68,0,0,0-.53.57,3.72,3.72,0,0,0-.37.52.74.74,0,0,0-.12.33.28.28,0,0,0,0,.13h0q0,.15.27.21a2.63,2.63,0,0,0,.58.07l.51,0,.55,0H29a.43.43,0,0,0,.26-.06c.05,0,.08-.07.08-.11a.34.34,0,0,0,0-.09.83.83,0,0,0,0-.13L29.31,15l-.18-.34-.25-.51-.26-.51-.17-.35a.19.19,0,0,0-.2-.15h-.11A.39.39,0,0,0,27.91,13.29Z"/><path class="a" d="M41.59,16.66c0-.1-.07-.15-.13-.15l-.07,0-.13.06-.9.36a5.83,5.83,0,0,1-.72.22,3.83,3.83,0,0,1-.69.13,6.5,6.5,0,0,1-.82,0,2.48,2.48,0,0,1-.61-.07A1.65,1.65,0,0,1,37,17a1.25,1.25,0,0,1-.37-.42,1.36,1.36,0,0,1-.14-.63,4.62,4.62,0,0,1,.09-.82,7,7,0,0,1,.26-1,8.32,8.32,0,0,1,.43-1,5.42,5.42,0,0,1,.57-.91,3.13,3.13,0,0,1,.71-.66,1.51,1.51,0,0,1,.85-.25h.15a1.94,1.94,0,0,1,1,.3,3.94,3.94,0,0,1,.89.75,4.81,4.81,0,0,1,.69,1,4.5,4.5,0,0,1,.42,1l.77-.34,1.18-.53,1.4-.63,1.39-.64,1.18-.54.77-.34.44-.16.31-.08.28,0h.35a1.63,1.63,0,0,1,.89.22,1.5,1.5,0,0,1,.56.56,2.18,2.18,0,0,1,.28.79,4,4,0,0,1,0,.49,2.88,2.88,0,0,1,0,.41,3.86,3.86,0,0,1-.22.89,3,3,0,0,1-.39.75l-4.73,8v.27a1.69,1.69,0,0,0,.23.59c.16.3.36.66.61,1.08s.53.87.84,1.36.61,1,.92,1.42.6.87.88,1.25.51.68.69.89a.72.72,0,0,1,.08.27.29.29,0,0,1-.06.15.45.45,0,0,1-.23.12l-.3,0h-.47a1.42,1.42,0,0,1-.63-.17,2.93,2.93,0,0,1-.65-.43,5.82,5.82,0,0,1-.62-.6c-.2-.23-.38-.45-.55-.67s-.32-.44-.45-.64-.22-.38-.29-.52Zm-3.46-1.51a.55.55,0,0,0,.13.43.59.59,0,0,0,.42.12H39l.46,0L40,15.6a3.36,3.36,0,0,0,.48-.13,1.29,1.29,0,0,0,.35-.2.37.37,0,0,0,.13-.29.88.88,0,0,0-.07-.3c-.06-.12-.12-.26-.2-.41s-.18-.3-.29-.45a5.36,5.36,0,0,0-.33-.43,2.93,2.93,0,0,0-.34-.3.58.58,0,0,0-.31-.12.68.68,0,0,0-.54.27,2.28,2.28,0,0,0-.4.62,4,4,0,0,0-.23.72A3.28,3.28,0,0,0,38.13,15.15Zm5.08.9a.31.31,0,0,0,0,.13l.06.16a1.74,1.74,0,0,0,.11.18l2.22,4.4.1.09.09.07a.2.2,0,0,0,.11,0,.42.42,0,0,0,.31-.13,1.72,1.72,0,0,0,.22-.33l4.45-7.41a.82.82,0,0,0,.16-.43A.43.43,0,0,0,51,12.6a.32.32,0,0,0-.25-.16l-.28,0a2.23,2.23,0,0,0-.46.06,1.75,1.75,0,0,0-.48.21l-5.83,2.75c-.21.07-.35.15-.4.26A.68.68,0,0,0,43.21,16.05Z"/><path class="a" d="M58.75,24.29c-.07-.19-.18-.46-.31-.81s-.28-.75-.46-1.19-.36-.93-.56-1.44l-.3-.79-.62-1.58-.31-.77-.56-1.44c-.17-.45-.33-.84-.46-1.19s-.23-.61-.3-.81l-.37-.68c-.13-.24-.25-.48-.37-.73a4.49,4.49,0,0,1-.29-.77,2.23,2.23,0,0,1-.11-.66v-.06a1.64,1.64,0,0,1,.18-.68,1.66,1.66,0,0,1,.55-.58h.14a1.84,1.84,0,0,1,.62.62,5.46,5.46,0,0,1,.46.86c.13.3.24.6.34.89s.17.52.24.69a.18.18,0,0,1,.05.08s0,.05,0,.06h0a.06.06,0,0,0,0,0s.07-.06.13-.13l.3-.29c.13-.13.28-.26.45-.41s.35-.29.55-.43a5.56,5.56,0,0,1,.58-.41,5.12,5.12,0,0,1,.55-.3,1.21,1.21,0,0,1,.48-.12.78.78,0,0,1,.57.23,2.1,2.1,0,0,1,.38.57,4.22,4.22,0,0,1,.27.73c.08.27.16.51.25.74a2.65,2.65,0,0,0,.3.56.53.53,0,0,0,.45.23A.68.68,0,0,0,62.2,14c.11-.14.22-.28.32-.43l.21-.29a2.89,2.89,0,0,1,.32-.42.7.7,0,0,1,.54-.26.32.32,0,0,1,.24.09.67.67,0,0,1,.13.22,1.1,1.1,0,0,1,0,.27,2.09,2.09,0,0,1,0,.24,2.41,2.41,0,0,1-.28,1.07A4.12,4.12,0,0,1,62,16.22,2.28,2.28,0,0,1,61,16.5a.7.7,0,0,1-.55-.23,1.94,1.94,0,0,1-.33-.57c-.06-.17-.12-.35-.17-.54l-.11-.38a4.27,4.27,0,0,0-.18-.54,1.59,1.59,0,0,0-.33-.57.71.71,0,0,0-.54-.23,1.28,1.28,0,0,0-.55.14,2.25,2.25,0,0,0-.54.37,1.91,1.91,0,0,0-.41.49,1.06,1.06,0,0,0-.17.54v.42l3.33,8a1.4,1.4,0,0,1,.09.31,1.58,1.58,0,0,1,0,.26,2,2,0,0,1,0,.32.71.71,0,0,1-.23.34.79.79,0,0,1-.55.16,1,1,0,0,1-.58-.17A1,1,0,0,1,58.75,24.29Z"/><path class="a" d="M65.36,29.61a34.21,34.21,0,0,0,2.29-3.4,37.91,37.91,0,0,0,1.92-3.69,38.71,38.71,0,0,0,1.53-3.86,34.37,34.37,0,0,0,1.06-3.94v-.55a1.93,1.93,0,0,0-.24-1A1.12,1.12,0,0,0,70.4,13a1.38,1.38,0,0,0-.35.56,4.11,4.11,0,0,0-.19.73,4.89,4.89,0,0,1-.17.73,1.57,1.57,0,0,1-.32.57.83.83,0,0,1-.62.22.9.9,0,0,1-.73-.28,1.35,1.35,0,0,1-.22-.81A4.11,4.11,0,0,1,68,13.36a4.57,4.57,0,0,1,.68-1.25,3.63,3.63,0,0,1,1-.91,2.6,2.6,0,0,1,1.31-.35,2.13,2.13,0,0,1,1,.22,2.31,2.31,0,0,1,.72.6,3.46,3.46,0,0,1,.5.84,5.61,5.61,0,0,1,.32,1,6.87,6.87,0,0,1,.17,1,7.54,7.54,0,0,1,0,.91,14.75,14.75,0,0,1-.57,4,20.53,20.53,0,0,1-1.55,3.88,23.89,23.89,0,0,1-2.25,3.55,24.16,24.16,0,0,1-2.72,3,1.43,1.43,0,0,1-.22.15,1.51,1.51,0,0,1-.18.09l-.13,0h-.29a.25.25,0,0,1-.14-.07c-.06,0-.12-.1-.18-.15a.9.9,0,0,1-.15-.19A.3.3,0,0,1,65.36,29.61Z"/><path class="a" d="M76.5,13.9a3.19,3.19,0,0,1,.2-1.13,2.73,2.73,0,0,1,.56-.91,2.3,2.3,0,0,1,.86-.6A2.78,2.78,0,0,1,79.25,11a4.07,4.07,0,0,1,1.27.2,3.13,3.13,0,0,1,1,.57,2.49,2.49,0,0,1,.72.89,2.59,2.59,0,0,1,.27,1.2A2.44,2.44,0,0,1,82.29,15a2.93,2.93,0,0,1-.69.91,3,3,0,0,1-1,.6,2.85,2.85,0,0,1-1.11.22,2.79,2.79,0,0,1-1.12-.24,3.07,3.07,0,0,1-1-.63,3.33,3.33,0,0,1-.68-.91A2.45,2.45,0,0,1,76.5,13.9Zm1.65,0a2,2,0,0,0,.08.6.8.8,0,0,0,.24.37,1.14,1.14,0,0,0,.43.2,2.77,2.77,0,0,0,.62.06A1.25,1.25,0,0,0,80,15a1.66,1.66,0,0,0,.45-.26,1.23,1.23,0,0,0,.31-.4,1,1,0,0,0,.12-.47,1.09,1.09,0,0,0-.14-.54A1.26,1.26,0,0,0,80.4,13a1.77,1.77,0,0,0-.48-.23,1.93,1.93,0,0,0-.53-.07,2.52,2.52,0,0,0-.6.06.73.73,0,0,0-.38.2.77.77,0,0,0-.2.37A2.52,2.52,0,0,0,78.15,13.9Z"/><path class="a" d="M94.32,17.57l-.31.3-.48.42-1.14,1-.49.45-.32.29a1.18,1.18,0,0,1-.43.23,1.64,1.64,0,0,1-.48.07h-.18a.72.72,0,0,1-.34-.14.53.53,0,0,1-.21-.43v0a1.41,1.41,0,0,1,.07-.34c0-.17.1-.37.17-.62s.16-.5.24-.77.17-.53.26-.77l.23-.65c.06-.19.11-.32.13-.4a7,7,0,0,0,.3-.79,1.12,1.12,0,0,0,0-.24c0-.07,0-.11,0-.11h0a.59.59,0,0,0-.31.17l-.51.46-.64.61c-.23.22-.46.42-.68.61a5.08,5.08,0,0,1-.64.48,1,1,0,0,1-.51.2.41.41,0,0,1-.32-.12.73.73,0,0,1-.17-.28,1.93,1.93,0,0,1-.06-.36v-.36a2.43,2.43,0,0,1,.11-.68c.07-.26.16-.53.26-.81s.19-.55.29-.82a4.26,4.26,0,0,0,.19-.61,2,2,0,0,0,0-.32.34.34,0,0,0,0-.18A.11.11,0,0,0,88.2,13,.59.59,0,0,0,88,13l-1.29.73a5.91,5.91,0,0,1-.65.32.94.94,0,0,1-.28.06.32.32,0,0,1-.17-.06,1.11,1.11,0,0,1-.25-.22.64.64,0,0,1-.1-.35,1,1,0,0,1,0-.28,2,2,0,0,1,.47-.69,4.72,4.72,0,0,1,.81-.69,10.06,10.06,0,0,1,1-.59,8.41,8.41,0,0,1,1-.42,2.48,2.48,0,0,1,.73-.16.81.81,0,0,1,.55.14.8.8,0,0,1,.14.56,2.19,2.19,0,0,1-.13.77c-.08.25-.18.49-.28.73a6.76,6.76,0,0,0-.29.69,1.85,1.85,0,0,0-.13.7v.28a.9.9,0,0,0,.52-.19,5.27,5.27,0,0,0,.58-.46c.19-.18.4-.38.6-.6a8.42,8.42,0,0,1,.61-.59,4.66,4.66,0,0,1,.59-.47,1,1,0,0,1,.54-.18.74.74,0,0,1,.55.14.85.85,0,0,1,.13.56,2.84,2.84,0,0,1-.08.64c-.05.25-.12.52-.2.81s-.17.57-.26.86l-.25.83c-.07.26-.12.46-.15.62a1.94,1.94,0,0,0,0,.35,1.1,1.1,0,0,0,0,.18.12.12,0,0,0,.12.09l.14,0a2.78,2.78,0,0,0,.42-.34L99,10.93a1.21,1.21,0,0,1,.68-.27.62.62,0,0,1,.39.11.48.48,0,0,1,.16.26.47.47,0,0,1,0,.17.68.68,0,0,1,0,.19,2.36,2.36,0,0,1-.1.38,2.53,2.53,0,0,1-.16.33,2.22,2.22,0,0,1-.14.22c-.71.67-1.33,1.26-1.84,1.76s-.92.93-1.24,1.27-.55.61-.7.79a1.14,1.14,0,0,0-.21.34h0a3.58,3.58,0,0,0,.44,1.21A10.88,10.88,0,0,0,97,18.78c.28.35.56.7.86,1A10.53,10.53,0,0,1,98.71,21a6.13,6.13,0,0,1,.61,1.32,5,5,0,0,1,.24,1.6.48.48,0,0,1-.55.59,1.05,1.05,0,0,1-.72-.3,3.43,3.43,0,0,1-.64-.78,10.13,10.13,0,0,1-.58-1.1c-.18-.41-.36-.84-.53-1.27L96,19.75a12,12,0,0,0-.5-1.11,3.54,3.54,0,0,0-.52-.77.73.73,0,0,0-.54-.3Z"/><path class="a" d="M101.68,27.7a15.75,15.75,0,0,0,1.66-2.21A20.9,20.9,0,0,0,104.68,23a25.79,25.79,0,0,0,1.07-2.6c.31-.89.59-1.78.83-2.68a1.43,1.43,0,0,0,.08-.46,1,1,0,0,0,0-.21c0-.1-.11-.18-.3-.26a1.55,1.55,0,0,0-.56-.11h-.32c-.35,0-.8,0-1.34.08H104a.63.63,0,0,1-.58-.28,1.41,1.41,0,0,1-.17-.71c0-.08,0-.23,0-.47a6.94,6.94,0,0,1,.28-1.16,17.29,17.29,0,0,1,.64-1.69c.25-.59.54-1.2.86-1.81s.65-1.2,1-1.75a.32.32,0,0,1,.14-.16.76.76,0,0,1,.21-.08l.23,0h.23a.72.72,0,0,1,.33.07.86.86,0,0,1,.26.2.84.84,0,0,1,.18.28.8.8,0,0,1,.06.3.67.67,0,0,1,0,.18,1.34,1.34,0,0,1-.11.32l-.24.53-.4.86c-.17.35-.36.78-.59,1.28l-.82,1.78v.28a1.23,1.23,0,0,0,0,.17,1,1,0,0,0,0,.23.59.59,0,0,0,.07.2.18.18,0,0,0,.16.09h2.18a.51.51,0,0,1,.51.35,2.49,2.49,0,0,1,.07.58c0,.11,0,.24,0,.38a8.56,8.56,0,0,1-.28,1.37c-.15.52-.32,1.05-.52,1.61s-.41,1.11-.64,1.66-.44,1.07-.65,1.55-.39.89-.55,1.25l-.37.78c-.09.18-.22.38-.37.62s-.33.47-.52.71-.4.48-.62.71a7.5,7.5,0,0,1-.66.62,2.87,2.87,0,0,1-.65.44,1.3,1.3,0,0,1-.59.17.45.45,0,0,1-.4-.17.33.33,0,0,1,0-.17A.35.35,0,0,1,101.68,27.7Z"/><path class="a" d="M110.56,29.52a.34.34,0,0,1,0-.09s.05-.12.1-.24.12-.3.22-.53.23-.55.41-.95.39-.89.66-1.49l1-2.17c.38-.85.82-1.85,1.32-3L116,17.12V17a.34.34,0,0,0-.17-.3.71.71,0,0,0-.37-.1,1.12,1.12,0,0,0-.67.16.91.91,0,0,0-.32.41,1.87,1.87,0,0,0-.13.53c0,.19,0,.37-.08.53a1.19,1.19,0,0,1-.18.41.48.48,0,0,1-.41.16.75.75,0,0,1-.6-.21,1,1,0,0,1-.23-.5,2.44,2.44,0,0,1,0-.53c0-.07,0-.18,0-.34a4.53,4.53,0,0,0,0-.55l-.58-.08a6,6,0,0,1-.68-.16,5.4,5.4,0,0,1-.67-.25,2.1,2.1,0,0,1-.56-.37,1.28,1.28,0,0,1-.34-.5.72.72,0,0,1-.07-.33,1.35,1.35,0,0,1,0-.33l.13-.33c.06-.16.14-.34.22-.54s.18-.41.29-.64.19-.44.29-.64l.26-.53a3.45,3.45,0,0,1,.18-.35,2.21,2.21,0,0,1,.36-.43.76.76,0,0,1,.46-.12.71.71,0,0,1,.43.12.68.68,0,0,1,.25.3,1.27,1.27,0,0,1,.12.39,3.28,3.28,0,0,1,0,.43,1.93,1.93,0,0,1-.13.65c-.09.21-.18.42-.28.62s-.17.37-.23.52a1.14,1.14,0,0,0-.08.34.63.63,0,0,0,0,.21c0,.09.12.16.28.22a2.17,2.17,0,0,0,.62.08h.32a5.43,5.43,0,0,1,.2-.51l.34-.74c.11-.26.22-.51.33-.74s.18-.4.22-.51l.15-.34a3.75,3.75,0,0,1,.24-.36,1.4,1.4,0,0,1,.32-.28.69.69,0,0,1,.39-.12.6.6,0,0,1,.43.12.61.61,0,0,1,.12.43,2.84,2.84,0,0,1-.17,1,8.75,8.75,0,0,1-.36.87c-.12.26-.23.48-.3.66a1,1,0,0,0-.12.41.81.81,0,0,0,0,.19c0,.08.1.12.23.13h.23a4.91,4.91,0,0,0,1-.15l.21-.52.34-.78c.13-.27.24-.53.34-.76s.18-.39.22-.46a2,2,0,0,1,.29-.45,3.92,3.92,0,0,1,.46-.45,2.83,2.83,0,0,1,.51-.34.85.85,0,0,1,.44-.13h0a.43.43,0,0,1,.34.2,1.11,1.11,0,0,1,.11.55v.07L113,29.26a1.11,1.11,0,0,1-.23.35,2.18,2.18,0,0,1-.38.36,2.11,2.11,0,0,1-.45.28,1,1,0,0,1-.46.11.9.9,0,0,1-.7-.21A1,1,0,0,1,110.56,29.52Z"/><path class="a" d="M125.88,18.91l1.25-2.12a.27.27,0,0,0,0-.14l0-.07a.23.23,0,0,0-.12-.08l-.21-.05h-.32l-3.9.12a1.06,1.06,0,0,1-.49-.11,1.28,1.28,0,0,1-.4-.27.78.78,0,0,1-.23-.39.57.57,0,0,1,0-.18.79.79,0,0,1,.06-.29c.36-.92.8-1.88,1.31-2.91s1.05-2.07,1.62-3.14,1.13-2.16,1.69-3.26,1.07-2.18,1.52-3.25l.14-.49c.07-.22.13-.46.2-.7l.2-.68c.06-.22.11-.38.14-.48a.5.5,0,0,1,.26-.34.81.81,0,0,1,.28-.08,1,1,0,0,1,.76.28A1.37,1.37,0,0,1,130,1a2.72,2.72,0,0,1,0,.49c0,.11,0,.22,0,.33a3.22,3.22,0,0,1-.17.71c-.07.17-.18.43-.34.78s-.35.75-.57,1.2-.44.92-.68,1.41-.46,1-.68,1.41-.42.85-.6,1.2-.31.61-.41.77-.13.21-.26.42-.27.47-.44.75l-.52.9-.53.91-.44.74c-.13.21-.21.35-.26.42a4.36,4.36,0,0,1-.37.67,1.06,1.06,0,0,0-.17.58.51.51,0,0,0,.09.32.53.53,0,0,0,.23.16.78.78,0,0,0,.31.06h.32a4.5,4.5,0,0,0,.72-.07l.35-.06.73-.15.36-.07a4.17,4.17,0,0,1,.71-.06,2.91,2.91,0,0,1,.6.06,1.41,1.41,0,0,1,.52.2,1,1,0,0,1,.37.37,1.11,1.11,0,0,1,.14.6,1.66,1.66,0,0,1-.12.54,4.29,4.29,0,0,1-.33.69,8.6,8.6,0,0,1-.49.74,5.31,5.31,0,0,1-.55.67,3.21,3.21,0,0,1-.58.49,1,1,0,0,1-.52.18,2.22,2.22,0,0,1-.37,0c-.11,0-.17-.1-.17-.24Z"/><path class="a" d="M141.86,11.4a3.19,3.19,0,0,1-.27.66c-.18.39-.46.95-.84,1.69-.2.44-.41.88-.62,1.32s-.43.88-.64,1.32c-.36.77-.73,1.59-1.12,2.45l-1.2,2.66c-.42.9-.84,1.8-1.28,2.71s-.88,1.77-1.32,2.6c-.69,1.28-1,1.93-1,2-.58.94-1.06,1.4-1.45,1.4a.91.91,0,0,1-.33-.09.65.65,0,0,1-.33-.36,1.06,1.06,0,0,1-.06-.37,1.59,1.59,0,0,1,0-.36,5.09,5.09,0,0,1,.3-.85c.13-.28.27-.55.41-.8s.26-.45.34-.59l1.21-2.19.86-1.54.63-1.14.52-1L138,16.49a1.29,1.29,0,0,0,.16-.29.34.34,0,0,0,0-.09.08.08,0,0,0,0-.06l-.06,0h-.34l-.64,0-1.08.05-1.12.05h-1.23q-1,0-1-.9a7.21,7.21,0,0,1,.77-1.42c.25-.4.46-.71.62-.95l.34-.47a1.1,1.1,0,0,1,.41-.22,1.31,1.31,0,0,1,.46-.07.93.93,0,0,1,.32,0,.78.78,0,0,1,.18.11.29.29,0,0,1,.08.14.77.77,0,0,1,0,.15,4.42,4.42,0,0,1-.58,1.07c-.19.32-.34.57-.45.74a1,1,0,0,0-.16.32A.36.36,0,0,0,135,15a2.65,2.65,0,0,0,.61.17,6.86,6.86,0,0,0,.83,0c.3,0,.6,0,.89,0l.81-.08a5.05,5.05,0,0,0,.56-.09l.39-.94c.11-.27.2-.52.29-.74l.25-.61c.07-.18.16-.38.24-.59a2.7,2.7,0,0,1,.34-.61,2.61,2.61,0,0,1,.4-.41,1.75,1.75,0,0,1,.38-.23.75.75,0,0,1,.29-.08h.11l.17.05a.57.57,0,0,1,.25.16.63.63,0,0,1,.08.17v.06s0,0,0,.07l0,0h0Z"/><path class="a" d="M155.15,12.36a2.71,2.71,0,0,1-.13.69c-.08.28-.2.61-.34,1s-.4.95-.51,1.23-.17.42-.19.45a20.55,20.55,0,0,1-.63,2.13c-.13.35-.33.53-.6.53h-.09c-.64,0-1-.5-1-1.48a2.83,2.83,0,0,1,.32-1.18l.16-.27.12-.2.09-.17c0-.25-.22-.61-.67-1.07a4,4,0,0,0-.55-.51.79.79,0,0,0-.44-.17c-.31,0-.61.46-.92,1.38s-.51,1.45-.65,1.87a4.72,4.72,0,0,1-.23.66,2.84,2.84,0,0,1-.65,1,1.16,1.16,0,0,1-.76.32.49.49,0,0,1-.43-.27A1.38,1.38,0,0,1,147,18a1,1,0,0,1,0-.3,2.5,2.5,0,0,1,.22-.77c.15-.38.37-.88.67-1.52s.51-1.1.66-1.43a3.42,3.42,0,0,0,.21-.56.68.68,0,0,0-.11-.42.47.47,0,0,0-.35-.16,3.5,3.5,0,0,0-1.74.84,4.63,4.63,0,0,0-1.39,1.45l-.12.35c-.05.18-.13.4-.23.67a1.62,1.62,0,0,1-.4.72.7.7,0,0,1-.48.22h-.14c-.09,0-.19-.09-.31-.26a1.3,1.3,0,0,1-.18-.75,3,3,0,0,1,.26-1.2,7.41,7.41,0,0,1,.76-1.33,6.11,6.11,0,0,1,1-1.11,5.37,5.37,0,0,1,1.08-.7,7.2,7.2,0,0,1,1.29-.39,7.68,7.68,0,0,1,1.23-.16,6.65,6.65,0,0,1,1.08.14,5.28,5.28,0,0,1,1.07.33l.34.18c.16.09.38.23.65.41l.62.37a.91.91,0,0,0,.26.12h0c.05.08.1.12.16.12a.33.33,0,0,0,.17-.11,1.41,1.41,0,0,0,.15-.28,3.56,3.56,0,0,0,.13-.39,1.73,1.73,0,0,1,.35-.66,1.48,1.48,0,0,1,.48-.37,1,1,0,0,1,.38-.08h.12a.67.67,0,0,1,.38.2.71.71,0,0,1,.16.46v0A1.5,1.5,0,0,1,155.15,12.36Z"/><path class="a" d="M156.72,24.26a10.35,10.35,0,0,1,.31-2.55,15.4,15.4,0,0,1,.81-2.43c.34-.8.72-1.58,1.14-2.36s.86-1.53,1.29-2.28c.11-.21.26-.46.43-.76s.37-.61.59-.94.45-.66.7-1a6.82,6.82,0,0,1,.81-.87,4.39,4.39,0,0,1,.86-.63,1.9,1.9,0,0,1,.9-.24l.27,0a1.78,1.78,0,0,1,.33.09.94.94,0,0,1,.31.17.63.63,0,0,1,.2.26v0a.63.63,0,0,1-.18.33,3.83,3.83,0,0,1-.5.53l-.71.65-.76.66-.65.58a2.72,2.72,0,0,0-.39.4c-.35.48-.68,1-1,1.51s-.61,1.07-.89,1.61-.56,1.09-.82,1.63-.52,1.08-.76,1.6l-.43,1a6.12,6.12,0,0,0-.36,1.12,5.29,5.29,0,0,0-.16,1c0,.29,0,.47,0,.54a8.86,8.86,0,0,0,.15,1.53,1.41,1.41,0,0,0,.63.86,2.36,2.36,0,0,0,1.16.24,3.42,3.42,0,0,0,1.6-.4,6.6,6.6,0,0,0,1.47-1.08,11.37,11.37,0,0,0,1.32-1.6,18.15,18.15,0,0,0,1.14-1.93,21.83,21.83,0,0,0,.94-2.09c.28-.71.51-1.4.7-2.07a18.49,18.49,0,0,0,.44-1.88,9.22,9.22,0,0,0,.15-1.51,3.82,3.82,0,0,0-.28-1.45,5.26,5.26,0,0,0-.82-1.32.45.45,0,0,1,.28-.25l.27,0a2.31,2.31,0,0,1,1.25.3,1.86,1.86,0,0,1,.71.79,3,3,0,0,1,.27,1.17c0,.13,0,.25,0,.38a7.39,7.39,0,0,1-.07,1,11.51,11.51,0,0,1-.29,1.49c-.13.5-.26,1-.41,1.45s-.3.88-.44,1.27l-.34,1c-.17.49-.37,1-.59,1.54s-.49,1.06-.77,1.59-.6,1-.93,1.54a11.59,11.59,0,0,1-1.1,1.39,9,9,0,0,1-1.26,1.14,6,6,0,0,1-1.44.81,7.61,7.61,0,0,1-2,.31,3,3,0,0,1-1.85-.54C157.13,27,156.72,25.9,156.72,24.26Zm4.94-4.67-1-.95a.24.24,0,0,1-.05-.14.84.84,0,0,1,0-.1.31.31,0,0,1,.09-.13.23.23,0,0,1,.13-.08H161a.22.22,0,0,1,.13,0,2.13,2.13,0,0,0,1,.35.92.92,0,0,0,.64-.22,1.54,1.54,0,0,0,.4-.58c.1-.25.19-.49.28-.74a4.63,4.63,0,0,1,.29-.68.85.85,0,0,1,.43-.41.26.26,0,0,1,.14,0h.11a.71.71,0,0,1,.2.06.53.53,0,0,1,.2.15.38.38,0,0,1,.07.21s0,.05,0,.09l-.69,1.37-.09.27a.5.5,0,0,0,.11.34.8.8,0,0,0,.27.18,1.89,1.89,0,0,0,.36.1l.35.07a1.08,1.08,0,0,1,.27.1.21.21,0,0,1,.11.19.34.34,0,0,1-.17.31.76.76,0,0,1-.39.1,1.07,1.07,0,0,1-.34-.07,1.84,1.84,0,0,0-.38-.09h-.19a1.13,1.13,0,0,0-.46.1.91.91,0,0,0-.42.49,1,1,0,0,0-.15.25l-.2.44-.2.44a1.53,1.53,0,0,1-.15.25,2,2,0,0,1-.51.58,1.3,1.3,0,0,1-.44.24l-.27,0a.7.7,0,0,1-.27-.06.26.26,0,0,1-.17-.24V21.7a1.14,1.14,0,0,1,.13-.57,2.14,2.14,0,0,1,.32-.45l.34-.41a.86.86,0,0,0,.16-.51Z"/><path class="a" d="M175.75,23.25c-.39-.8-.77-1.61-1.15-2.45s-.77-1.67-1.17-2.51-.82-1.66-1.25-2.48-.88-1.6-1.37-2.37v-.28a.94.94,0,0,1,.14-.46,1.82,1.82,0,0,1,.38-.45,1.12,1.12,0,0,1,.37-.24l.21,0a.24.24,0,0,1,.19.1l1.79,3.62.16.14h.12a5.57,5.57,0,0,0,.78-.77c.28-.33.57-.69.88-1.07l.93-1.16c.31-.39.63-.74.94-1.06a6.13,6.13,0,0,1,.91-.78,1.48,1.48,0,0,1,.83-.3,1.19,1.19,0,0,1,.89.38,3.58,3.58,0,0,1,.65.9,9.26,9.26,0,0,1,.5,1.06,5.69,5.69,0,0,0,.43.86l.3.52.54.91c.2.35.43.72.67,1.12s.48.78.71,1.15l.63,1c.19.3.35.54.47.7a17.94,17.94,0,0,1,1.11,1.81,6.88,6.88,0,0,1,.55,1.28,2.56,2.56,0,0,1,.13.73v.12a1.35,1.35,0,0,1-.15.49.51.51,0,0,1-.28.23.73.73,0,0,1-.26.06.68.68,0,0,1-.38-.15,4,4,0,0,1-.44-.41,7.09,7.09,0,0,1-.45-.57,6.26,6.26,0,0,1-.43-.62l-.37-.58-.28-.44a2.08,2.08,0,0,0-.13-.25l-.21-.4-.13-.23-.28-.48a2.6,2.6,0,0,0-.13-.24l-.22-.39-.13-.24a.1.1,0,0,0-.09-.12.59.59,0,0,0-.2,0,3.71,3.71,0,0,0-.49.42c-.19.19-.4.4-.62.64l-.69.76-.7.81-.66.77-.57.63c-.09.11-.22.24-.37.4s-.33.32-.51.47a3.47,3.47,0,0,1-.57.4,1.14,1.14,0,0,1-.55.16.37.37,0,0,1-.29-.13,2,2,0,0,1-.25-.31c-.08-.12-.15-.24-.22-.36A1.45,1.45,0,0,0,175.75,23.25Zm-.89-6a1.24,1.24,0,0,0,.07.39,1.69,1.69,0,0,0,.2.46,1.66,1.66,0,0,0,.31.38.61.61,0,0,0,.39.16H176l.62-.59,3.12-3.44.15-.17.09-.12a.23.23,0,0,0,0-.11.58.58,0,0,0,0-.15,1.06,1.06,0,0,0-.09-.34,3.92,3.92,0,0,0-.22-.47,2.91,2.91,0,0,0-.28-.41q-.13-.18-.24-.18H179l-.28.14-3.86,4.17Zm1.52,3.06a1.68,1.68,0,0,0,.06.31,3.9,3.9,0,0,0,.19.5,2.07,2.07,0,0,0,.31.48.65.65,0,0,0,.41.24h.13l2.5-2.5.24-.23.53-.5a2.73,2.73,0,0,0,.25-.23l.45-.45c.13-.15.24-.28.32-.39a.58.58,0,0,0,.11-.2v-.06a.48.48,0,0,0,0-.18,1.39,1.39,0,0,0-.06-.13l-.11-.16a2.73,2.73,0,0,1-.18-.26l-.18-.27c-.07-.12-.15-.24-.23-.35l-.29-.42s-.05,0-.07,0a.17.17,0,0,0-.11.06l-1.06,1c-.37.34-.74.71-1.1,1.09s-.72.8-1.08,1.24A13.93,13.93,0,0,0,176.38,20.27Z"/><path class="a" d="M192.63,13.08a.63.63,0,0,0-.39.21,5.31,5.31,0,0,0-.46.53l-.52.69c-.19.25-.38.48-.57.7a4.07,4.07,0,0,1-.6.53,1.07,1.07,0,0,1-.61.21.91.91,0,0,1-.35-.07,1.78,1.78,0,0,1-.36-.19,1.17,1.17,0,0,1-.28-.26.53.53,0,0,1-.11-.3,1,1,0,0,1,.19-.41,7.63,7.63,0,0,1,.5-.67c.21-.26.45-.53.73-.83s.56-.59.85-.89.6-.56.91-.82a10,10,0,0,1,.85-.66,2.9,2.9,0,0,1,.72-.37,1,1,0,0,1,.27-.05.37.37,0,0,1,.21.06,4.82,4.82,0,0,1,.51.59c.19.25.38.54.59.84s.41.63.63.95.44.63.65.9a5.46,5.46,0,0,0,.65.69,1.23,1.23,0,0,0,.61.33h.18a.92.92,0,0,0,.47-.14,1.94,1.94,0,0,0,.48-.45,5.93,5.93,0,0,0,.49-.74c.17-.28.36-.59.58-.91a3.5,3.5,0,0,1,.78-.8,1.87,1.87,0,0,1,.62-.33l.24,0a.37.37,0,0,1,.36.21.52.52,0,0,1,0,.21,1.88,1.88,0,0,1-.17.66c0,.09-.09.23-.16.4l-.24.54c-.09.18-.17.34-.25.48a.9.9,0,0,1-.2.27,5.86,5.86,0,0,1-.37.57c-.15.21-.32.44-.52.67s-.4.47-.62.69a9,9,0,0,1-.67.61,3.36,3.36,0,0,1-.66.43,1.3,1.3,0,0,1-.59.17,2.23,2.23,0,0,1-.75-.1,1.41,1.41,0,0,1-.48-.28,1.75,1.75,0,0,1-.33-.42c-.1-.17-.22-.36-.36-.56s-.36-.55-.55-.89-.4-.64-.59-.93a4.81,4.81,0,0,0-.61-.74,1,1,0,0,0-.61-.31Z"/><path class="a" d="M211.29,22.63a1,1,0,0,1,.13.47.88.88,0,0,1,0,.16.67.67,0,0,1-.29.33.89.89,0,0,1-.39.12l-.29,0c-.78,0-1.41-.85-1.91-2.55-.18-.66-.31-1.28-.41-1.87a11.34,11.34,0,0,1-.14-1.7c0-.39,0-.74,0-1.06s0-.6,0-.85,0-.68.06-.86a1.83,1.83,0,0,1,0-.26h0a.68.68,0,0,0,0-.14.18.18,0,0,0-.2-.21h-.12a7.54,7.54,0,0,1-2.68.66,3.4,3.4,0,0,1-1.52-.34,1.16,1.16,0,0,1-.77-1.11,2.75,2.75,0,0,1,.75-1.47c.48-.63.92-1,1.32-1s.58.25.58.74a1.17,1.17,0,0,1-.34.81,1.32,1.32,0,0,0-.29.75c0,.18,0,.28,0,.3a.48.48,0,0,0,.17.28.55.55,0,0,0,.23.1h.17l.21,0,.26,0h0l.15,0,.47-.14.27-.05.56-.13.27-.06a1.67,1.67,0,0,0,.49-.22,1.36,1.36,0,0,0,.39-.4l.31-.57.34-.62a1.17,1.17,0,0,1,1-.65q.51,0,.51.36a2.53,2.53,0,0,1-.34.82,5.77,5.77,0,0,0-.35.6,1.38,1.38,0,0,1-.16.26,8.59,8.59,0,0,0-.4,1.55,10.73,10.73,0,0,0-.14,1.76,11.89,11.89,0,0,0,.1,1.49,13.63,13.63,0,0,0,.26,1.42,8.52,8.52,0,0,0,1.24,2.58l.28.44A1.17,1.17,0,0,1,211.29,22.63Z"/><path class="a" d="M216.53,23.62a1.78,1.78,0,0,1,.26-.7,5.1,5.1,0,0,1,.56-.8c.22-.28.48-.56.75-.85s.56-.57.83-.86l.77-.8a5.1,5.1,0,0,0,.6-.73,1.75,1.75,0,0,0,.28-.49c0-.1,0-.18,0-.21a.41.41,0,0,0-.13-.29l-.93-1.58c-.07-.11-.13-.16-.2-.16h-.07s-.09.06-.15.15c-.23.42-.47.8-.7,1.15s-.48.69-.74,1a12.16,12.16,0,0,1-.84.93c-.3.3-.64.6-1,.91a2.78,2.78,0,0,1-.37.27,1,1,0,0,1-.45.09.46.46,0,0,1-.42-.21.77.77,0,0,1-.16-.37c0-.11,0-.19,0-.23a1.42,1.42,0,0,1,.08-.45.59.59,0,0,1,.24-.34,1.4,1.4,0,0,1,.49-.48,3.15,3.15,0,0,0,.6-.48l.31-.32c.15-.13.31-.29.49-.46l.58-.54.56-.54.48-.45.32-.31a.44.44,0,0,0,.12-.22.71.71,0,0,0,0-.2,1.3,1.3,0,0,0-.13-.46,3.84,3.84,0,0,0-.33-.59,3.77,3.77,0,0,0-.41-.52.55.55,0,0,0-.36-.22.63.63,0,0,0-.35.13,2.44,2.44,0,0,0-.37.3l-.33.32-.19.22-.23.27-.39.48-.38.49-.23.27-.24.24-.39.41-.43.43-.32.3a.46.46,0,0,1-.19.09h-.13a1,1,0,0,1-.23,0,.44.44,0,0,1-.22-.17.47.47,0,0,1-.1-.32,2.71,2.71,0,0,1,0-.29,1.59,1.59,0,0,1,.06-.3,2.31,2.31,0,0,1,.14-.35,3.78,3.78,0,0,1,.26-.43,6.33,6.33,0,0,1,.85-1.07c.33-.34.68-.68,1-1l1.09-1a11.92,11.92,0,0,0,1-1,.77.77,0,0,1,.44-.27h.1a.83.83,0,0,1,.4.12,1.89,1.89,0,0,1,.49.43,3.81,3.81,0,0,1,.49.71l1.14,2c.43.71.87,1.44,1.31,2.19s.88,1.48,1.3,2.2.79,1.37,1.11,2,.57,1.11.75,1.54a2.3,2.3,0,0,1,.23.78s0,.07,0,.1a1.68,1.68,0,0,0,0,.3,1.17,1.17,0,0,1-.08.37.42.42,0,0,1-.17.24.39.39,0,0,1-.2.06.71.71,0,0,1-.28-.07.34.34,0,0,1-.18-.07,1.39,1.39,0,0,1-.19-.15,1.54,1.54,0,0,1-.17-.19l-.12-.15L221.77,20l-.15-.25a1.15,1.15,0,0,0-.15-.2.26.26,0,0,0-.14-.07c-.05,0-.09,0-.13.11s-.22.42-.4.73-.38.63-.6,1-.48.7-.74,1.06a11.41,11.41,0,0,1-.82,1,5.53,5.53,0,0,1-.81.7,1.35,1.35,0,0,1-.74.27.54.54,0,0,1-.27-.07.58.58,0,0,1-.17-.18.75.75,0,0,1-.1-.2,1.37,1.37,0,0,1,0-.19Z"/><path class="a" d="M232.06,17h-.84l-.78,0-1.21,0-1.78.06A1,1,0,0,1,227,17a1.69,1.69,0,0,1-.36-.23,1.26,1.26,0,0,1-.25-.32.75.75,0,0,1-.09-.34,2.17,2.17,0,0,1,.2-.87,6.41,6.41,0,0,1,.52-1c.22-.35.47-.7.74-1.05s.55-.69.83-1,.55-.61.81-.87.48-.47.67-.64a.53.53,0,0,1,.36-.2h0a.74.74,0,0,1,.39.17,2.3,2.3,0,0,1,.38.42c.13.18.26.38.4.6l.36.6.53.84.59.95.58.91c.18.28.33.53.47.74l.27.41c.11.19.21.35.3.49a4.16,4.16,0,0,1,.22.4,2,2,0,0,1,.13.39,2.28,2.28,0,0,1,.05.48,2.25,2.25,0,0,1,0,.41,1.74,1.74,0,0,1-.14.48,1.08,1.08,0,0,1-.3.4.69.69,0,0,1-.51.17.91.91,0,0,1-.58-.17,1.68,1.68,0,0,1-.4-.44,3.77,3.77,0,0,1-.28-.57q-.12-.3-.24-.57a2,2,0,0,0-.25-.44A.46.46,0,0,0,232.06,17Zm-3.26-1.68a.27.27,0,0,0,.16.28,1.16,1.16,0,0,0,.4.06,3.71,3.71,0,0,0,.47,0,2.25,2.25,0,0,1,.41,0l.24,0,.43,0a2.33,2.33,0,0,0,.41-.07c.12,0,.18-.09.18-.16v-.13c-.07-.18-.16-.36-.24-.54s-.15-.3-.23-.46a4.65,4.65,0,0,0-.23-.41c-.08-.13-.15-.25-.22-.35l-.19-.24c-.06-.07-.11-.11-.15-.11l-.05,0a.29.29,0,0,0-.16.09,1.84,1.84,0,0,0-.27.28l-.33.46a5.74,5.74,0,0,0-.32.53,3.57,3.57,0,0,0-.22.51A1.28,1.28,0,0,0,228.8,15.28Z"/><path class="a" d="M242,13.64l-.13.14a18.33,18.33,0,0,0-.84,1.65c-.25.55-.48,1.11-.7,1.67s-.42,1.14-.62,1.73-.39,1.18-.6,1.79c0,.11-.06.29-.13.54s-.14.53-.24.84-.2.62-.31.94a9.35,9.35,0,0,1-.37.88,3.29,3.29,0,0,1-.38.66c-.12.17-.24.26-.36.26a.76.76,0,0,1-.42-.12.86.86,0,0,1-.26-.56,3,3,0,0,1-.09-.76c0-.11,0-.22,0-.33a5.14,5.14,0,0,1,.31-1.34c.3-.76.56-1.44.79-2l.63-1.62c.19-.49.37-.94.55-1.37s.36-.86.55-1.29.41-.9.65-1.39.51-1,.82-1.66a2,2,0,0,0,.2-.36,2.32,2.32,0,0,1,.22-.41,1.15,1.15,0,0,1,.29-.33A.65.65,0,0,1,242,11h.14a.35.35,0,0,1,.21.08,1.16,1.16,0,0,1,.28.24,2.25,2.25,0,0,1,.34.5l.2.33.47.74c.19.3.4.64.64,1l.69,1.11.65,1,.51.85.23.45.36.71c.14.27.29.55.44.85s.31.58.44.85l.37.75.23.5a6.85,6.85,0,0,1,.33,1,6,6,0,0,1,.17.89,7.89,7.89,0,0,1,0,.84v.83c0,.14,0,.28,0,.43a1.54,1.54,0,0,1-.07.42,1.72,1.72,0,0,1-.17.4,1.13,1.13,0,0,1-.32.34h-.07c-.08,0-.16-.06-.24-.17a2.68,2.68,0,0,1-.33-.6c-.11-.26-.23-.56-.34-.9l-.37-1.08-.39-1.12c-.14-.37-.28-.71-.43-1l-.15-.39a.87.87,0,0,1-.1-.2c0-.1-.11-.23-.17-.38s-.1-.21-.15-.34l-.11-.24a3,3,0,0,0-.14-.36c-.07-.14-.13-.26-.17-.36a.86.86,0,0,0-.11-.19l-.14-.3c-.08-.16-.17-.37-.29-.62l-.39-.84-.46-.94-.46-.92c-.16-.3-.3-.57-.44-.81a6.46,6.46,0,0,0-.35-.56c-.1-.14-.17-.21-.22-.21Z"/><path class="a" d="M252.72,23.45l.14-.27,3-2.91a2.39,2.39,0,0,0,.57-.61,1.44,1.44,0,0,0,.2-.44,1.49,1.49,0,0,0,0-.25.75.75,0,0,0,0-.2l-.05-.17q-.15-.5-.27-.78a3.74,3.74,0,0,0-.23-.43L256,17.2s0,0,0,0a7.33,7.33,0,0,0-.79,0l-.88.12-.88.11a5.79,5.79,0,0,1-.79.06l-.65,0a3.39,3.39,0,0,1-.64-.07,2,2,0,0,1-.58-.21,1.33,1.33,0,0,1-.49-.4,1.18,1.18,0,0,1-.15-.42.61.61,0,0,1,0-.14.93.93,0,0,1,0-.27,1.6,1.6,0,0,1,.23-.45,6.1,6.1,0,0,1,.45-.52c.23-.23.48-.49.75-.8l.84-.95c.28-.33.58-.64.87-1a10.86,10.86,0,0,1,.88-.82,4.62,4.62,0,0,1,.84-.55,1.32,1.32,0,0,1,.6-.16h.13a.89.89,0,0,1,.6.39,3,3,0,0,1,.42,1.07l1.8,6.94v.27a1,1,0,0,1-.23.5,6.83,6.83,0,0,1-.56.71q-.35.39-.75.81t-.81.78l-.71.64a5.72,5.72,0,0,1-.45.38,5.59,5.59,0,0,1-.89.62,2.32,2.32,0,0,1-.72.27h-.16a.53.53,0,0,1-.34-.1.53.53,0,0,1-.18-.46Zm0-7.75a.34.34,0,0,0,.15.31.85.85,0,0,0,.34.11l.34,0h1.51a1,1,0,0,0,.49-.11.34.34,0,0,0,.2-.31s0-.09,0-.22-.06-.27-.09-.45-.08-.36-.14-.56-.11-.37-.17-.54a2.93,2.93,0,0,0-.18-.42c-.07-.11-.14-.16-.21-.16h0a.18.18,0,0,0-.11,0,.46.46,0,0,0-.19,0,.3.3,0,0,0-.17.13l-1.65,1.8a.4.4,0,0,0-.13.21A1.48,1.48,0,0,0,252.72,15.7Z"/><path class="a" d="M260.51,20.79a.66.66,0,0,0-.2.06.39.39,0,0,1-.14,0h-.05c-.05,0-.09,0-.14-.09a.91.91,0,0,1-.12-.34,2.33,2.33,0,0,1,.08-.62,1.86,1.86,0,0,1,.22-.5,2.42,2.42,0,0,1,.34-.45l.47-.48s.13-.13.25-.27l.42-.46.5-.57.51-.57.42-.46.25-.27a4.19,4.19,0,0,1,.32-.31.3.3,0,0,0,.13-.24.36.36,0,0,0,0-.1,1.3,1.3,0,0,0-.24-.44l-.39-.58c-.15-.2-.3-.42-.45-.64a3.58,3.58,0,0,1-.37-.65,1.67,1.67,0,0,1-.17-.49,1.84,1.84,0,0,1,0-.24.75.75,0,0,1,.12-.41.79.79,0,0,1,.22-.32.48.48,0,0,1,.33-.1.61.61,0,0,1,.39.17,1.47,1.47,0,0,1,.3.38c0,.07.1.19.19.37s.19.38.3.58l.29.59.18.38c0,.08.07.16.1.23l.1.19a.17.17,0,0,0,.07.09l0,0a.15.15,0,0,0,.08-.05l.17-.2.32-.3.46-.44,1.08-1,.46-.43.31-.3a1.9,1.9,0,0,1,.47-.41,1.48,1.48,0,0,1,.61-.23l.14,0a.66.66,0,0,1,.37.1.63.63,0,0,1,.21.56.41.41,0,0,1,0,.11s0,.05,0,.08a.33.33,0,0,0-.06.08,7.94,7.94,0,0,1-.9.93l-1,.79c-.34.25-.66.51-1,.78a7.13,7.13,0,0,0-.9.92v.14a.61.61,0,0,0,.07.23,1.09,1.09,0,0,0,.18.31,1.12,1.12,0,0,0,.21.22.32.32,0,0,0,.2.09l.09,0c.93-.89,1.74-1.63,2.43-2.24s1.3-1.11,1.81-1.5.93-.7,1.26-.9a7.77,7.77,0,0,1,.83-.46,1.58,1.58,0,0,1,.49-.16,1.16,1.16,0,0,1,.23,0,1.47,1.47,0,0,1,.56.1,1.19,1.19,0,0,1,.5.52.2.2,0,0,1,0,.09.67.67,0,0,1-.21.4,7.38,7.38,0,0,1-.83.75c-.36.28-.78.59-1.25.92s-1,.66-1.47,1l-1.47,1c-.48.33-.91.62-1.28.89s-.64.5-.84.68-.29.32-.29.41a.06.06,0,0,0,0,0,7,7,0,0,0,.53,1c.23.36.46.76.69,1.19a9.57,9.57,0,0,1,.6,1.34,4.14,4.14,0,0,1,.25,1.43c0,.13,0,.27,0,.41a1.59,1.59,0,0,1-.07.4.86.86,0,0,1-.21.29.6.6,0,0,1-.4.12,1,1,0,0,1-.65-.2,1.53,1.53,0,0,1-.36-.5,3,3,0,0,1-.19-.62,3.76,3.76,0,0,0-.18-.59c-.06-.12-.12-.26-.19-.42s-.14-.33-.23-.5-.16-.36-.25-.54-.18-.37-.26-.55c-.19-.41-.39-.84-.59-1.29l-.16-.13ZM264.09,17l-.18.15-.27.25-.31.29a3,3,0,0,0-.25.28.58.58,0,0,0-.11.2.26.26,0,0,0,0,.07.09.09,0,0,0,.08.1,1.65,1.65,0,0,0,.33-.09c.18-.06.37-.14.57-.23a5,5,0,0,0,.52-.27c.15-.1.22-.18.22-.25h0a1.11,1.11,0,0,0-.07-.23,1.36,1.36,0,0,0-.13-.24c-.06-.07-.1-.11-.14-.12l-.07,0A.24.24,0,0,0,264.09,17Z"/></svg>